<svg xmlns="http://www.w3.org/2000/svg" fill="none" viewBox="0 0 120 25" class="landing-page-v2-layout__header__logo" style="color: rgb(255, 255, 255);"><path fill="currentColor" d="M118.648 1h-4.568a.99.99 0 0 0-.989.992v22.016a.99.99 0 0 0 .989.992h4.568a.99.99 0 0 0 .989-.992V1.992a.99.99 0 0 0-.989-.992Zm-9.517.005L101.755 1a.96.96 0 0 0-.859.541L93.991 15.48a.894.894 0 0 1-1.614 0L85.47 1.541A.96.96 0 0 0 84.612 1l-7.375.005c-.532 0-.964.444-.964.992v22.01c0 .548.431.992.964.992h4.45c.532 0 .963-.444.963-.992V14.16c0-.98 1.281-1.296 1.713-.423l5.31 10.72a.96.96 0 0 0 .859.542h5.3a.96.96 0 0 0 .86-.541L102 13.738c.432-.873 1.713-.556 1.713.423v9.846c0 .548.431.992.963.992h4.451c.532 0 .963-.444.963-.992V1.997c0-.547-.431-.991-.963-.992h.003Z"></path><path fill="currentColor" fill-rule="evenodd" d="M73.297 8.091a12.069 12.069 0 0 0-2.692-3.937 10.815 10.815 0 0 0-3.584-2.323c-1.38-.555-2.99-.833-4.829-.833H38.353c-1.839 0-3.449.278-4.828.833a10.814 10.814 0 0 0-3.584 2.323 12.067 12.067 0 0 0-2.692 3.937c-.651 1.513-.976 3.158-.976 4.907s.325 3.393.976 4.906a12.067 12.067 0 0 0 2.692 3.937c1.01.994 2.204 1.767 3.584 2.323 1.38.555 2.99.834 4.828.834h23.84c1.839 0 3.449-.279 4.828-.834 1.38-.556 2.575-1.33 3.584-2.323a12.069 12.069 0 0 0 2.692-3.937c.651-1.513.976-3.157.976-4.906 0-1.75-.325-3.394-.976-4.907Zm-6.09 2.71a5.4 5.4 0 0 0-1.205-1.761A4.84 4.84 0 0 0 64.398 8c-.617-.248-1.338-.373-2.161-.373H38.309c-.823 0-1.544.125-2.161.373a4.84 4.84 0 0 0-1.604 1.04 5.4 5.4 0 0 0-1.205 1.762 5.511 5.511 0 0 0-.437 2.196c0 .783.145 1.519.437 2.196a5.4 5.4 0 0 0 1.205 1.762c.452.444.986.79 1.604 1.04.617.248 1.338.372 2.16.372h23.929c.823 0 1.544-.124 2.161-.373a4.834 4.834 0 0 0 1.604-1.04 5.4 5.4 0 0 0 1.205-1.761 5.51 5.51 0 0 0 .437-2.196 5.51 5.51 0 0 0-.437-2.196Z" clip-rule="evenodd"></path><path fill="currentColor" d="m26.901 23.219-11.782-9.46a1 1 0 0 1 0-1.554l11.776-9.437c.728-.583.32-1.768-.608-1.768h-5.644a2.24 2.24 0 0 0-1.34.446L8.043 9.863c-.647.484-1.561.016-1.561-.797V1.991A.985.985 0 0 0 5.5 1H.98C.44 1 0 1.444 0 1.991V24.01c0 .547.438.991.98.991h4.522c.54 0 .979-.444.979-.991v-7.09c0-.813.914-1.28 1.56-.797l11.262 8.417c.388.29.857.446 1.34.446h5.648c.928 0 1.337-1.184.61-1.767Z"></path></svg>