<svg width="24" height="24" viewBox="0 0 24 24" fill="none" xmlns="http://www.w3.org/2000/svg">
<path d="M14.4694 8.68822L11.7597 3.93214C11.5494 3.56304 11.0037 3.60774 10.8563 4.00615L8.91539 9.25174C8.85793 9.40704 8.72731 9.52381 8.56657 9.56359L4.4249 10.5886C3.96168 10.7032 3.90699 11.3397 4.34388 11.5317L8.4942 13.3553C8.69094 13.4417 8.81044 13.6442 8.79102 13.8582L8.25105 19.8079C8.21092 20.2501 8.7241 20.5213 9.06685 20.2391L13.1054 16.9132C13.2197 16.8191 13.3698 16.7804 13.5153 16.8077L17.7293 17.5964C18.1709 17.6791 18.489 17.1826 18.2294 16.816L16.4479 14.3002C16.3214 14.1216 16.3258 13.8816 16.4587 13.7077L20.201 8.81026C20.4803 8.44487 20.1597 7.92809 19.7083 8.01587L14.9993 8.93151C14.7888 8.97244 14.5756 8.87456 14.4694 8.68822Z" fill="black"/>
</svg>
