<svg width="24" height="24" viewBox="0 0 24 24" fill="none" xmlns="http://www.w3.org/2000/svg">
<path fill-rule="evenodd" clip-rule="evenodd" d="M16.0167 7.43741C13.0338 5.44124 9.19466 6.10534 7.40919 8.77337C6.35494 10.3487 6.21799 12.3054 6.89529 14.0666C7.02906 14.4145 6.85551 14.8049 6.50768 14.9387C6.15984 15.0724 5.76942 14.8989 5.63566 14.551C4.81719 12.4227 4.96498 9.9992 6.28761 8.0228C8.53974 4.65744 13.2458 3.95924 16.7673 6.31582C17.077 6.52309 17.16 6.94219 16.9528 7.2519C16.7455 7.56162 16.3264 7.64468 16.0167 7.43741Z" fill="black"/>
<path d="M17.7993 7.67413L16.2941 4.15027C16.2294 3.99871 16.0194 3.98611 15.937 4.12884L13.6378 8.11105C13.5554 8.25378 13.6713 8.42933 13.835 8.40961L17.6393 7.95126C17.7717 7.93531 17.8517 7.79675 17.7993 7.67413Z" fill="black"/>
<path d="M6.4924 16.3015L7.99765 19.8254C8.06239 19.9769 8.27237 19.9895 8.35478 19.8468L10.6539 15.8646C10.7363 15.7219 10.6204 15.5463 10.4568 15.566L6.6524 16.0244C6.52003 16.0403 6.44003 16.1789 6.4924 16.3015Z" fill="black"/>
<path fill-rule="evenodd" clip-rule="evenodd" d="M17.5244 9.06134C17.8723 8.92757 18.2627 9.10111 18.3964 9.44895C19.2149 11.5773 19.0671 14.0008 17.7445 15.9772C15.4924 19.3426 10.7863 20.0408 7.26485 17.6842C6.95513 17.4769 6.87208 17.0578 7.07934 16.7481C7.28661 16.4384 7.70571 16.3553 8.01543 16.5626C10.9983 18.5588 14.8374 17.8947 16.6229 15.2266C17.6772 13.6513 17.8141 11.6946 17.1368 9.93336C17.003 9.58552 17.1766 9.1951 17.5244 9.06134Z" fill="black"/>
</svg>
