<svg width="24" height="24" viewBox="0 0 24 24" fill="none" xmlns="http://www.w3.org/2000/svg">
<circle cx="12" cy="12" r="8.88889" fill="#0AC88F"/>
<path fill-rule="evenodd" clip-rule="evenodd" d="M12 20.3333C16.6024 20.3333 20.3333 16.6024 20.3333 12C20.3333 7.39763 16.6024 3.66667 12 3.66667C7.39763 3.66667 3.66667 7.39763 3.66667 12C3.66667 16.6024 7.39763 20.3333 12 20.3333ZM12 22C17.5228 22 22 17.5228 22 12C22 6.47715 17.5228 2 12 2C6.47715 2 2 6.47715 2 12C2 17.5228 6.47715 22 12 22Z" fill="#0AC88F"/>
<path fill-rule="evenodd" clip-rule="evenodd" d="M16.6935 8.40757C17.0627 8.71629 17.1042 9.25712 16.7862 9.61554L11.8275 15.2041C11.2408 15.8653 10.1857 15.8653 9.599 15.2041L7.21382 12.516C6.89579 12.1575 6.9373 11.6167 7.30653 11.308C7.67576 10.9993 8.23289 11.0396 8.55091 11.398L10.7132 13.835L15.4491 8.49757C15.7671 8.13915 16.3242 8.09886 16.6935 8.40757Z" fill="white"/>
</svg>
