<svg width="24" height="24" viewBox="0 0 24 24" fill="none" xmlns="http://www.w3.org/2000/svg">
<path fill-rule="evenodd" clip-rule="evenodd" d="M15.193 14.2891C15.4582 13.9709 15.9311 13.9279 16.2493 14.1931L19.4801 16.8854C19.6511 17.0279 19.75 17.239 19.75 17.4616C19.75 17.6841 19.6511 17.8952 19.4801 18.0377L16.2493 20.73C15.9311 20.9952 15.4582 20.9522 15.193 20.634C14.9278 20.3158 14.9708 19.8429 15.289 19.5777L17.8284 17.4616L15.289 15.3454C14.9708 15.0802 14.9278 14.6073 15.193 14.2891Z" fill="#131F60"/>
<path fill-rule="evenodd" clip-rule="evenodd" d="M9.09614 6.69232C9.09614 6.27811 9.43192 5.94232 9.84614 5.94232H15.2308C17.1319 5.94232 18.6731 7.4835 18.6731 9.38463C18.6731 11.2858 17.1319 12.8269 15.2308 12.8269H8.76921C7.69651 12.8269 6.8269 13.6965 6.8269 14.7692C6.8269 15.842 7.6965 16.7116 8.76921 16.7116H17.9231C18.3373 16.7116 18.6731 17.0473 18.6731 17.4616C18.6731 17.8758 18.3373 18.2116 17.9231 18.2116H8.76921C6.86808 18.2116 5.3269 16.6704 5.3269 14.7692C5.3269 12.8681 6.86808 11.3269 8.76921 11.3269H15.2308C16.3035 11.3269 17.1731 10.4573 17.1731 9.38463C17.1731 8.31192 16.3035 7.44232 15.2308 7.44232H9.84614C9.43192 7.44232 9.09614 7.10654 9.09614 6.69232Z" fill="#131F60"/>
<path fill-rule="evenodd" clip-rule="evenodd" d="M7.69231 7.88462C8.3508 7.88462 8.88462 7.3508 8.88462 6.69231C8.88462 6.03381 8.3508 5.5 7.69231 5.5C7.03381 5.5 6.5 6.03381 6.5 6.69231C6.5 7.3508 7.03381 7.88462 7.69231 7.88462ZM7.69231 9.38462C9.17923 9.38462 10.3846 8.17923 10.3846 6.69231C10.3846 5.20539 9.17923 4 7.69231 4C6.20539 4 5 5.20539 5 6.69231C5 8.17923 6.20539 9.38462 7.69231 9.38462Z" fill="#131F60"/>
</svg>
