<svg width="24" height="24" viewBox="0 0 24 24" fill="none" xmlns="http://www.w3.org/2000/svg">
<path d="M12 21C10.77 21 9.6075 20.7637 8.5125 20.2912C7.4175 19.8187 6.46125 19.1737 5.64375 18.3562C4.82625 17.5387 4.18125 16.5825 3.70875 15.4875C3.23625 14.3925 3 13.23 3 12C3 10.725 3.24 9.54 3.72 8.445C4.2 7.35 4.85625 6.3975 5.68875 5.5875C6.52125 4.7775 7.49625 4.14375 8.61375 3.68625C9.73125 3.22875 10.9275 3 12.2025 3C13.3875 3 14.5125 3.19875 15.5775 3.59625C16.6425 3.99375 17.5762 4.545 18.3787 5.25C19.1812 5.955 19.8187 6.79125 20.2912 7.75875C20.7637 8.72625 21 9.7875 21 10.9425C21 12.5625 20.5275 13.8412 19.5825 14.7787C18.6375 15.7162 17.385 16.185 15.825 16.185H14.1375C13.8675 16.185 13.635 16.29 13.44 16.5C13.245 16.71 13.1475 16.9425 13.1475 17.1975C13.1475 17.6025 13.2562 17.9475 13.4737 18.2325C13.6912 18.5175 13.8 18.8475 13.8 19.2225C13.8 19.7925 13.6425 20.2312 13.3275 20.5387C13.0125 20.8463 12.57 21 12 21ZM12 19.65C12.165 19.65 12.2812 19.6162 12.3487 19.5487C12.4162 19.4813 12.45 19.3725 12.45 19.2225C12.45 19.0125 12.3412 18.8175 12.1237 18.6375C11.9062 18.4575 11.7975 18.06 11.7975 17.445C11.7975 16.755 12.0225 16.1475 12.4725 15.6225C12.9225 15.0975 13.4925 14.835 14.1825 14.835H15.825C16.965 14.835 17.8875 14.5012 18.5925 13.8337C19.2975 13.1663 19.65 12.2025 19.65 10.9425C19.65 8.9625 18.9 7.36875 17.4 6.16125C15.9 4.95375 14.1675 4.35 12.2025 4.35C10.0125 4.35 8.15625 5.08875 6.63375 6.56625C5.11125 8.04375 4.35 9.855 4.35 12C4.35 14.115 5.09625 15.9187 6.58875 17.4113C8.08125 18.9038 9.885 19.65 12 19.65Z" fill="#131F60"/>
<circle cx="16.35" cy="9.6" r="1.35" fill="#131F60"/>
<circle cx="12.7501" cy="7.35" r="1.35" fill="#131F60"/>
<circle cx="8.88027" cy="8.70004" r="1.35" fill="#131F60"/>
<circle cx="7.35" cy="12.3" r="1.35" fill="#131F60"/>
</svg>
