<svg width="24" height="24" viewBox="0 0 24 24" fill="none" xmlns="http://www.w3.org/2000/svg">
<path fill-rule="evenodd" clip-rule="evenodd" d="M12 9.64365L10.7394 7.68919C9.84375 6.30044 8.23958 5.75791 6.89186 6.06124C5.6681 6.33667 4.5 7.35338 4.5 9.59381C4.5 11.6373 6.0378 14.9228 11.7894 18.606C11.9168 18.6876 12.0832 18.6876 12.2106 18.606C17.9622 14.9228 19.5 11.6373 19.5 9.59381C19.5 7.37357 18.3351 6.35226 17.1052 6.07285C15.7551 5.76614 14.154 6.304 13.2606 7.68919L12 9.64365ZM10.9813 5.71241C8.07523 3.24784 3 4.44853 3 9.59381C3 12.3969 5.06044 16.0781 10.9805 19.8692C11.601 20.2665 12.399 20.2665 13.0195 19.8692C18.9396 16.0781 21 12.3969 21 9.59381C21 4.47777 15.9254 3.25472 13.0193 5.71312C12.6363 6.03705 12.2911 6.4249 12 6.87618C11.7091 6.42511 11.364 6.03698 10.9813 5.71241Z" fill="#131F60"/>
</svg>
