<svg width="24" height="24" viewBox="0 0 24 24" fill="none" xmlns="http://www.w3.org/2000/svg">
<path fill-rule="evenodd" clip-rule="evenodd" d="M12.1661 5.1511C12.0714 5.0669 11.9286 5.0669 11.8339 5.1511L4.83391 11.3733C4.78054 11.4208 4.75 11.4888 4.75 11.5602V19C4.75 19.1381 4.86193 19.25 5 19.25H8.5C8.63807 19.25 8.75 19.1381 8.75 19V15.2222C8.75 14.2557 9.5335 13.4722 10.5 13.4722H13.5C14.4665 13.4722 15.25 14.2557 15.25 15.2222V19C15.25 19.1381 15.3619 19.25 15.5 19.25H19C19.1381 19.25 19.25 19.1381 19.25 19V11.5602C19.25 11.4888 19.2195 11.4208 19.1661 11.3733L12.1661 5.1511ZM10.8374 4.02999C11.5004 3.44061 12.4996 3.44061 13.1626 4.02999L20.1626 10.2522C20.5362 10.5843 20.75 11.0603 20.75 11.5602V19C20.75 19.9665 19.9665 20.75 19 20.75H15.5C14.5335 20.75 13.75 19.9665 13.75 19V15.2222C13.75 15.0841 13.6381 14.9722 13.5 14.9722H10.5C10.3619 14.9722 10.25 15.0841 10.25 15.2222V19C10.25 19.9665 9.4665 20.75 8.5 20.75H5C4.0335 20.75 3.25 19.9665 3.25 19V11.5602C3.25 11.0603 3.46376 10.5843 3.83736 10.2522L10.8374 4.02999Z" fill="#131F60"/>
</svg>
