<svg width="24" height="24" viewBox="0 0 24 24" fill="none" xmlns="http://www.w3.org/2000/svg">
<path fill-rule="evenodd" clip-rule="evenodd" d="M17.6316 5.5H6.36842C5.33652 5.5 4.5 6.33652 4.5 7.36842C4.5 8.40032 5.33652 9.23684 6.36842 9.23684H17.6316C18.6635 9.23684 19.5 8.40032 19.5 7.36842C19.5 6.33652 18.6635 5.5 17.6316 5.5ZM6.36842 4C4.50809 4 3 5.50809 3 7.36842C3 9.22875 4.50809 10.7368 6.36842 10.7368H17.6316C19.4919 10.7368 21 9.22875 21 7.36842C21 5.50809 19.4919 4 17.6316 4H6.36842Z" fill="#131F60"/>
<path fill-rule="evenodd" clip-rule="evenodd" d="M17.6316 14.7631H6.36842C5.33652 14.7631 4.5 15.5996 4.5 16.6315C4.5 17.6634 5.33652 18.5 6.36842 18.5H17.6316C18.6635 18.5 19.5 17.6634 19.5 16.6315C19.5 15.5996 18.6635 14.7631 17.6316 14.7631ZM6.36842 13.2631C4.50809 13.2631 3 14.7712 3 16.6315C3 18.4919 4.50809 20 6.36842 20H17.6316C19.4919 20 21 18.4919 21 16.6315C21 14.7712 19.4919 13.2631 17.6316 13.2631H6.36842Z" fill="#131F60"/>
</svg>
