<svg width="24" height="24" viewBox="0 0 24 24" fill="none" xmlns="http://www.w3.org/2000/svg">
<path d="M12.062 14.567C11.3014 14.567 10.5822 14.2718 10.0448 13.7387C9.50746 13.2057 9.20984 12.4922 9.20984 11.7377C9.20984 10.9832 9.50746 10.2697 10.0448 9.73666C11.1195 8.67054 13.0045 8.67054 14.0792 9.73666C14.6165 10.2697 14.9142 10.9832 14.9142 11.7377C14.9142 12.4922 14.6165 13.2057 14.0792 13.7387C13.5418 14.2718 12.8226 14.567 12.062 14.567ZM12.062 10.1385C11.6321 10.1385 11.227 10.3025 10.9211 10.606C10.6153 10.9094 10.4499 11.3112 10.4499 11.7377C10.4499 12.1641 10.6153 12.566 10.9211 12.8694C11.5246 13.4681 12.5911 13.4763 13.2029 12.8694C13.5087 12.566 13.6741 12.1641 13.6741 11.7377C13.6741 11.3112 13.5087 10.9094 13.2029 10.606C12.897 10.3025 12.4919 10.1385 12.062 10.1385Z" fill="#131F60"/>
<path d="M13.1615 19.7336H10.8302C10.1606 19.7336 9.58187 19.2333 9.48266 18.5773L9.30078 17.3389C9.30078 17.2897 9.23465 17.2569 9.20985 17.2405C8.9949 17.1339 8.77995 17.0109 8.58154 16.8715C8.56501 16.8633 8.50714 16.8305 8.45754 16.8469L7.2836 17.3143C6.6553 17.5604 5.9278 17.3143 5.59711 16.7321L4.43145 14.7392C4.09249 14.157 4.2413 13.4107 4.7704 13.0006L5.81206 12.1887C5.79552 12.0411 5.79552 11.8935 5.79552 11.7377C5.79552 11.5819 5.79552 11.4343 5.81206 11.2866L4.7704 10.4748C4.2413 10.0647 4.09249 9.31843 4.43145 8.73616L5.59711 6.73514C5.93606 6.16107 6.6553 5.90684 7.2836 6.16107L8.45754 6.62852C8.50714 6.65313 8.57328 6.61212 8.58981 6.60392C8.78822 6.47271 8.9949 6.34969 9.21811 6.24308C9.23465 6.23488 9.30078 6.20208 9.30905 6.14467L9.49093 4.90633C9.58187 4.24206 10.1688 3.75 10.8385 3.75H13.1698C13.8477 3.75 14.4264 4.25026 14.5173 4.91453L14.6992 6.15287C14.6992 6.21028 14.7654 6.24308 14.7819 6.25128C14.9968 6.35789 15.2118 6.48091 15.4102 6.61212C15.4267 6.62032 15.4929 6.65313 15.5425 6.63672L16.7164 6.16927C17.3447 5.92324 18.0639 6.16927 18.4029 6.75154L19.5686 8.75256C19.9075 9.32663 19.7587 10.0811 19.2296 10.4912L18.1879 11.303C18.1962 11.4507 18.2045 11.5983 18.2045 11.7541C18.2045 11.9099 18.2045 12.0575 18.1879 12.2052L19.2296 13.017C19.7587 13.4271 19.9075 14.1816 19.5686 14.7556L18.4029 16.7567C18.0639 17.3389 17.3447 17.585 16.7164 17.3389L15.5425 16.8715C15.4846 16.8469 15.4267 16.8879 15.4102 16.8961C15.2118 17.0273 14.9968 17.1503 14.7819 17.2569C14.7654 17.2651 14.6992 17.2979 14.6909 17.3553L14.5091 18.5937C14.4181 19.2497 13.8394 19.75 13.1615 19.75V19.7336ZM8.49887 15.6085C8.77169 15.6085 9.03624 15.6905 9.27598 15.8464C9.44132 15.953 9.60667 16.0514 9.78028 16.1416C10.1854 16.3466 10.4747 16.7321 10.5326 17.1585L10.7145 18.3968C10.7227 18.4543 10.7723 18.5035 10.8385 18.5035H13.1698C13.2277 18.5035 13.2773 18.4625 13.2938 18.405L13.4757 17.1667C13.5418 16.7321 13.8229 16.3466 14.2363 16.1416C14.4099 16.0596 14.5752 15.9612 14.7323 15.8546C15.1208 15.6003 15.6003 15.5429 16.0137 15.7151L17.1876 16.1826C17.2455 16.2072 17.3116 16.1826 17.3364 16.1334L18.5021 14.1324C18.5352 14.0832 18.5186 14.0094 18.469 13.9766L17.1546 12.9596C16.9809 12.8284 16.89 12.6152 16.9231 12.402C16.9479 12.1887 16.9727 11.9755 16.9727 11.7541C16.9727 11.5327 16.9561 11.3195 16.9231 11.1062C16.8983 10.893 16.9809 10.6798 17.1546 10.5486L18.469 9.53165C18.5186 9.49885 18.5269 9.42504 18.5021 9.37583L17.3364 7.37481C17.3034 7.3256 17.2455 7.301 17.1876 7.3256L16.0137 7.79305C15.6003 7.95707 15.1208 7.90787 14.7406 7.65364C14.5835 7.54703 14.4181 7.44862 14.2445 7.36661C13.8312 7.16158 13.5501 6.77614 13.4839 6.34149L13.3021 5.10315C13.2938 5.04575 13.2442 4.99654 13.1781 4.99654H10.8467C10.7889 4.99654 10.7393 5.03754 10.7227 5.10315L10.5409 6.34969C10.4747 6.78434 10.1936 7.16158 9.78854 7.36661C9.61493 7.45682 9.44959 7.55523 9.28425 7.66184C8.89569 7.91607 8.42447 7.96527 8.01111 7.80126L6.83718 7.3338C6.77931 7.3092 6.71317 7.3338 6.68837 7.38301L5.52271 9.38403C5.48964 9.43324 5.50617 9.49885 5.55578 9.53985L6.87025 10.5568C7.04386 10.688 7.12653 10.9012 7.10173 11.1144C7.07693 11.3277 7.05213 11.5409 7.05213 11.7623C7.05213 11.9837 7.06866 12.1969 7.10173 12.4102C7.12653 12.6234 7.04386 12.8366 6.87025 12.9678L5.55578 13.9848C5.50617 14.0258 5.49791 14.0914 5.52271 14.1406L6.68837 16.1416C6.72144 16.199 6.77931 16.2154 6.83718 16.1908L8.01111 15.7233C8.16819 15.6577 8.3418 15.6249 8.50714 15.6249L8.49887 15.6085Z" fill="#131F60"/>
</svg>
