<svg width="24" height="24" viewBox="0 0 24 24" fill="none" xmlns="http://www.w3.org/2000/svg">
<path fill-rule="evenodd" clip-rule="evenodd" d="M12.803 4.96967C13.0959 4.67678 13.5707 4.67678 13.8636 4.96967L20.5302 11.6362C20.6709 11.7768 20.7499 11.9676 20.7499 12.1665C20.7499 12.3654 20.6709 12.5562 20.5302 12.6969L13.8636 19.3634C13.5708 19.6563 13.0959 19.6563 12.803 19.3634C12.5101 19.0705 12.5101 18.5957 12.803 18.3028L18.1892 12.9165H4C3.58579 12.9165 3.25 12.5807 3.25 12.1665C3.25 11.7523 3.58579 11.4165 4 11.4165H18.1892L12.803 6.03033C12.5101 5.73744 12.5101 5.26257 12.803 4.96967Z" fill="#131F60"/>
</svg>
