<svg width="18" height="18" viewBox="0 0 18 18" fill="none" xmlns="http://www.w3.org/2000/svg">
<path fill-rule="evenodd" clip-rule="evenodd" d="M10.842 15.3504C10.4932 16.1261 9.50994 16.3703 8.83874 15.8479L8.00632 15.1999C7.68684 14.9512 7.5 14.569 7.5 14.1642L7.5 11.4447H3.93463C2.61418 11.4447 1.63383 10.2211 1.92176 8.93244L3.12647 3.54055C3.33707 2.59799 4.17354 1.92778 5.13934 1.92778L12.5625 1.92778C12.8732 1.92778 13.125 2.17962 13.125 2.49028L13.125 9.99158C13.125 10.1771 13.0857 10.3606 13.0096 10.5298L10.842 15.3504ZM9.52976 14.9601C9.62564 15.0347 9.76611 14.9998 9.81594 14.889L11.9835 10.0685C11.9944 10.0443 12 10.0181 12 9.99158L12 3.05278L5.13934 3.05278C4.70034 3.05278 4.32013 3.35742 4.2244 3.78586L3.01969 9.17775C2.88881 9.76351 3.33442 10.3197 3.93463 10.3197H8.0625C8.37316 10.3197 8.625 10.5715 8.625 10.8822V14.1642C8.625 14.222 8.65169 14.2766 8.69733 14.3121L9.52976 14.9601Z" fill="#6355FF"/>
<path fill-rule="evenodd" clip-rule="evenodd" d="M16.125 9.40234C16.125 10.1272 15.5374 10.7148 14.8125 10.7148H12V1.92768H14.8125C15.5374 1.92768 16.125 2.51531 16.125 3.24018V9.40234ZM14.8125 9.58984C14.9161 9.58984 15 9.5059 15 9.40234V3.24018C15 3.13663 14.9161 3.05268 14.8125 3.05268H13.125V9.58984H14.8125Z" fill="#6355FF"/>
</svg>
