<svg width="200" height="559" viewBox="0 0 200 559" fill="none" xmlns="http://www.w3.org/2000/svg">
<path d="M64.1749 31.569C63.1307 31.569 62.1463 31.3831 61.2215 31.0111C60.3116 30.6242 59.521 30.0812 58.8498 29.3818C58.1934 28.6825 57.7012 27.8568 57.373 26.9045L60.2146 25.6324C60.6323 26.54 61.2065 27.2542 61.9374 27.7749C62.6833 28.2957 63.5036 28.5561 64.3986 28.5561C64.8759 28.5561 65.2861 28.4817 65.6292 28.3329C65.9723 28.1841 66.2408 27.9832 66.4347 27.7303C66.6286 27.4625 66.7256 27.15 66.7256 26.7929C66.7256 26.4061 66.6062 26.0787 66.3676 25.8109C66.1289 25.5282 65.756 25.305 65.2489 25.1414L61.9822 24.0701C60.6546 23.6386 59.6552 23.0286 58.984 22.24C58.3128 21.4365 57.9772 20.4768 57.9772 19.3609C57.9772 18.3789 58.2158 17.5159 58.6931 16.772C59.1854 16.028 59.8641 15.4478 60.7292 15.0312C61.6093 14.6146 62.6161 14.4062 63.7498 14.4062C64.7492 14.4062 65.674 14.5774 66.5242 14.9196C67.3744 15.2618 68.1053 15.7453 68.7169 16.3703C69.3434 16.9952 69.8132 17.7466 70.1265 18.6244L67.3073 19.8966C66.9941 19.1229 66.5242 18.5203 65.8977 18.0888C65.2712 17.6424 64.5552 17.4192 63.7498 17.4192C63.2874 17.4192 62.8772 17.4936 62.5192 17.6424C62.1612 17.7912 61.8852 18.0069 61.6913 18.2896C61.4974 18.5575 61.4004 18.8699 61.4004 19.227C61.4004 19.6139 61.5272 19.9561 61.7808 20.2537C62.0344 20.5363 62.4148 20.7595 62.9219 20.9232L66.1215 21.9498C67.4639 22.3813 68.4633 22.9839 69.1196 23.7576C69.7909 24.5313 70.1265 25.4761 70.1265 26.5921C70.1265 27.5592 69.8729 28.4222 69.3658 29.181C68.8586 29.9249 68.1575 30.5126 67.2626 30.9441C66.3825 31.3607 65.3533 31.569 64.1749 31.569Z" fill="black"/>
<path d="M78.2364 31.4351C76.7596 31.4351 75.6111 31.0408 74.7907 30.2523C73.9852 29.4488 73.5825 28.3329 73.5825 26.9045V22.0168H71.524V19.1154H71.6359C72.2624 19.1154 73.5825 19.1154 73.5825 19.1154C73.5825 19.1154 73.5825 17.8656 73.5825 17.2407V16.3479H76.9386V19.1154H79.8026V22.0168H76.9386V26.6813C76.9386 27.0979 77.0132 27.4476 77.1624 27.7303C77.3115 27.9981 77.5427 28.199 77.856 28.3329C78.1692 28.4668 78.5571 28.5337 79.0195 28.5337C79.1239 28.5337 79.2432 28.5263 79.3775 28.5114C79.5117 28.4966 79.6534 28.4817 79.8026 28.4668V31.3012C79.5788 31.331 79.3252 31.3607 79.0418 31.3905C78.7584 31.4203 78.4899 31.4351 78.2364 31.4351Z" fill="black"/>
<path d="M85.5505 31.569C84.6705 31.569 83.9097 31.4277 83.2683 31.145C82.6269 30.8623 82.1347 30.4606 81.7916 29.9398C81.4485 29.4042 81.277 28.7718 81.277 28.0427C81.277 27.3583 81.4336 26.7557 81.7469 26.235C82.0601 25.6993 82.5374 25.253 83.1788 24.8959C83.8352 24.5388 84.6481 24.2858 85.6177 24.137L89.3542 23.5344V25.9895L86.2218 26.5474C85.7444 26.6367 85.379 26.7929 85.1254 27.0161C84.8718 27.2244 84.745 27.5294 84.745 27.9312C84.745 28.3031 84.8868 28.5933 85.1702 28.8016C85.4536 29.0099 85.8041 29.114 86.2218 29.114C86.7737 29.114 87.2584 28.995 87.6761 28.7569C88.0938 28.5189 88.4145 28.199 88.6382 27.7972C88.8769 27.3806 88.9962 26.9268 88.9962 26.4358V23.2666C88.9962 22.8054 88.8097 22.4185 88.4368 22.1061C88.0788 21.7936 87.5866 21.6374 86.9601 21.6374C86.3635 21.6374 85.8339 21.8011 85.3715 22.1284C84.924 22.4557 84.5959 22.8872 84.3871 23.4229L81.7021 22.1507C81.9408 21.4663 82.3211 20.8786 82.8432 20.3876C83.3653 19.8966 83.9918 19.5171 84.7227 19.2493C85.4536 18.9815 86.2516 18.8476 87.1167 18.8476C88.146 18.8476 89.0559 19.0336 89.8464 19.4056C90.637 19.7775 91.2486 20.2983 91.6811 20.9678C92.1286 21.6225 92.3524 22.3888 92.3524 23.2666V31.3012H89.2199V29.3372L89.9807 29.2033C89.6227 29.7389 89.2274 30.1853 88.7948 30.5424C88.3622 30.8846 87.8775 31.1376 87.3405 31.3012C86.8035 31.4798 86.2068 31.569 85.5505 31.569Z" fill="black"/>
<path d="M94.8137 31.3012V19.1154H97.9461V21.5258L97.7672 20.9902C98.0506 20.2611 98.5055 19.7255 99.132 19.3832C99.7734 19.0261 100.519 18.8476 101.369 18.8476C102.294 18.8476 103.1 19.041 103.786 19.4279C104.487 19.8147 105.031 20.3578 105.419 21.0571C105.807 21.7415 106.001 22.545 106.001 23.4675V31.3012H102.645V24.1817C102.645 23.7056 102.548 23.2964 102.354 22.9542C102.175 22.612 101.914 22.3441 101.571 22.1507C101.243 21.9573 100.855 21.8606 100.407 21.8606C99.9748 21.8606 99.5869 21.9573 99.2439 22.1507C98.9008 22.3441 98.6323 22.612 98.4384 22.9542C98.2594 23.2964 98.1699 23.7056 98.1699 24.1817V31.3012H94.8137Z" fill="black"/>
<rect x="24" y="10.3262" width="24.7907" height="24.7907" rx="12.3953" fill="url(#paint0_linear_1680_59542)"/>
<path d="M31.9877 20.945C31.8647 19.973 32.1395 19.0126 32.7611 18.2413C33.4088 17.4372 34.3363 16.9669 35.3072 16.858V16.0119C35.3072 15.5717 35.6752 15.2148 36.1293 15.2148C36.5834 15.2148 36.9514 15.5717 36.9514 16.0119V17.0245C37.3451 17.1531 37.7233 17.3471 38.0689 17.609L39.478 18.6763C39.8359 18.9474 39.8992 19.4479 39.6196 19.7949C39.34 20.1418 38.8235 20.2033 38.466 19.9324L37.0568 18.8651C36.1281 18.1619 34.7823 18.3221 34.0567 19.2223C33.7051 19.6584 33.5501 20.2012 33.6197 20.7507C33.6893 21.3001 33.9752 21.7905 34.4251 22.1311L36.4331 23.6522C36.791 23.9233 36.8543 24.4241 36.575 24.7711C36.4128 24.9724 36.1711 25.0773 35.9268 25.0773C35.7499 25.0773 35.5716 25.0222 35.4213 24.9084L33.4133 23.3872C32.6168 22.7842 32.1108 21.917 31.9877 20.945Z" fill="white"/>
<path d="M39.1633 22.2663L37.2119 20.7453C36.8641 20.4742 36.3623 20.5356 36.0909 20.8825C35.8192 21.2295 35.8807 21.7302 36.2285 22.0013L38.1796 23.5224C38.6167 23.8629 38.8948 24.3532 38.9624 24.9026C39.0301 25.452 38.8791 25.9948 38.5378 26.4309C38.1285 26.9534 37.5169 27.2268 36.899 27.2265C36.452 27.2265 36.0015 27.0834 35.6227 26.7883L34.2535 25.7211C33.9058 25.45 33.4039 25.5114 33.1322 25.8584C32.8606 26.2053 32.9224 26.7061 33.2701 26.9771L34.639 28.0444C34.9745 28.3062 35.3423 28.5002 35.7249 28.6288V29.6416C35.7249 30.0818 36.0825 30.4386 36.5237 30.4386C36.9649 30.4386 37.3225 30.0818 37.3225 29.6416V28.7956C38.2661 28.687 39.1671 28.2167 39.7966 27.4127C41.0439 25.8198 40.76 23.5113 39.1636 22.2669L39.1633 22.2663Z" fill="white"/>
<path fill-rule="evenodd" clip-rule="evenodd" d="M37.1661 77.651C37.0714 77.5668 36.9286 77.5668 36.8339 77.651L29.8339 83.8733C29.7805 83.9207 29.75 83.9887 29.75 84.0601V91.4999C29.75 91.638 29.8619 91.7499 30 91.7499H33.5C33.6381 91.7499 33.75 91.638 33.75 91.4999V87.7222C33.75 86.7557 34.5335 85.9722 35.5 85.9722H38.5C39.4665 85.9722 40.25 86.7557 40.25 87.7222V91.4999C40.25 91.638 40.3619 91.7499 40.5 91.7499H44C44.1381 91.7499 44.25 91.638 44.25 91.4999V84.0601C44.25 83.9887 44.2195 83.9207 44.1661 83.8733L37.1661 77.651ZM35.8374 76.5299C36.5004 75.9405 37.4996 75.9405 38.1626 76.5299L45.1626 82.7521C45.5362 83.0842 45.75 83.5602 45.75 84.0601V91.4999C45.75 92.4664 44.9665 93.2499 44 93.2499H40.5C39.5335 93.2499 38.75 92.4664 38.75 91.4999V87.7222C38.75 87.5841 38.6381 87.4722 38.5 87.4722H35.5C35.3619 87.4722 35.25 87.5841 35.25 87.7222V91.4999C35.25 92.4664 34.4665 93.2499 33.5 93.2499H30C29.0335 93.2499 28.25 92.4664 28.25 91.4999V84.0601C28.25 83.5602 28.4638 83.0842 28.8374 82.7521L35.8374 76.5299Z" fill="#131F60"/>
<path d="M60.232 91V79.08H62.12V84.328H67.64V79.08H69.512V91H67.64V86.008H62.12V91H60.232ZM76.142 91.192C75.31 91.192 74.5473 90.9947 73.854 90.6C73.1713 90.2053 72.6273 89.6667 72.222 88.984C71.8167 88.3013 71.614 87.528 71.614 86.664C71.614 85.7893 71.8167 85.016 72.222 84.344C72.6273 83.6613 73.1713 83.128 73.854 82.744C74.5367 82.3493 75.2993 82.152 76.142 82.152C76.9953 82.152 77.758 82.3493 78.43 82.744C79.1127 83.128 79.6513 83.6613 80.046 84.344C80.4513 85.016 80.654 85.7893 80.654 86.664C80.654 87.5387 80.4513 88.3173 80.046 89C79.6407 89.6827 79.0967 90.2213 78.414 90.616C77.7313 91 76.974 91.192 76.142 91.192ZM76.142 89.512C76.654 89.512 77.1073 89.3893 77.502 89.144C77.8967 88.8987 78.206 88.5627 78.43 88.136C78.6647 87.6987 78.782 87.208 78.782 86.664C78.782 86.12 78.6647 85.6347 78.43 85.208C78.206 84.7813 77.8967 84.4453 77.502 84.2C77.1073 83.9547 76.654 83.832 76.142 83.832C75.6407 83.832 75.1873 83.9547 74.782 84.2C74.3873 84.4453 74.0727 84.7813 73.838 85.208C73.614 85.6347 73.502 86.12 73.502 86.664C73.502 87.208 73.614 87.6987 73.838 88.136C74.0727 88.5627 74.3873 88.8987 74.782 89.144C75.1873 89.3893 75.6407 89.512 76.142 89.512ZM82.5791 91V82.344H84.3071V84.216L84.0831 83.928C84.2645 83.3413 84.5951 82.8987 85.0751 82.6C85.5551 82.3013 86.1045 82.152 86.7231 82.152C87.4165 82.152 88.0298 82.3387 88.5631 82.712C89.1071 83.0747 89.4698 83.56 89.6511 84.168L89.1391 84.216C89.3951 83.5227 89.7845 83.0053 90.3071 82.664C90.8405 82.3227 91.4485 82.152 92.1311 82.152C92.7285 82.152 93.2671 82.2907 93.7471 82.568C94.2378 82.8453 94.6271 83.2293 94.9151 83.72C95.2031 84.2107 95.3471 84.7707 95.3471 85.4V91H93.5391V85.896C93.5391 85.4587 93.4591 85.0907 93.2991 84.792C93.1498 84.4827 92.9365 84.248 92.6591 84.088C92.3925 83.9173 92.0778 83.832 91.7151 83.832C91.3525 83.832 91.0325 83.9173 90.7551 84.088C90.4778 84.248 90.2591 84.4827 90.0991 84.792C89.9391 85.1013 89.8591 85.4693 89.8591 85.896V91H88.0671V85.896C88.0671 85.4587 87.9871 85.0907 87.8271 84.792C87.6778 84.4827 87.4645 84.248 87.1871 84.088C86.9205 83.9173 86.6005 83.832 86.2271 83.832C85.8645 83.832 85.5445 83.9173 85.2671 84.088C84.9898 84.248 84.7711 84.4827 84.6111 84.792C84.4618 85.1013 84.3871 85.4693 84.3871 85.896V91H82.5791ZM101.506 91.192C100.642 91.192 99.8742 90.9947 99.2022 90.6C98.5409 90.1947 98.0236 89.6507 97.6502 88.968C97.2769 88.2747 97.0902 87.5013 97.0902 86.648C97.0902 85.7733 97.2769 85 97.6502 84.328C98.0342 83.656 98.5462 83.128 99.1862 82.744C99.8262 82.3493 100.552 82.152 101.362 82.152C102.013 82.152 102.594 82.264 103.106 82.488C103.618 82.712 104.05 83.0213 104.402 83.416C104.754 83.8 105.021 84.2427 105.202 84.744C105.394 85.2453 105.49 85.7787 105.49 86.344C105.49 86.4827 105.485 86.6267 105.474 86.776C105.464 86.9253 105.442 87.064 105.41 87.192H98.5142V85.752H104.386L103.522 86.408C103.629 85.8853 103.592 85.4213 103.41 85.016C103.24 84.6 102.973 84.2747 102.61 84.04C102.258 83.7947 101.842 83.672 101.362 83.672C100.882 83.672 100.456 83.7947 100.082 84.04C99.7089 84.2747 99.4209 84.616 99.2182 85.064C99.0156 85.5013 98.9356 86.0347 98.9782 86.664C98.9249 87.2507 99.0049 87.7627 99.2182 88.2C99.4422 88.6373 99.7516 88.9787 100.146 89.224C100.552 89.4693 101.01 89.592 101.522 89.592C102.045 89.592 102.488 89.4747 102.85 89.24C103.224 89.0053 103.517 88.7013 103.73 88.328L105.202 89.048C105.032 89.4533 104.765 89.8213 104.402 90.152C104.05 90.472 103.624 90.728 103.122 90.92C102.632 91.1013 102.093 91.192 101.506 91.192Z" fill="#131F60"/>
<path fill-rule="evenodd" clip-rule="evenodd" d="M42.6316 134H31.3684C30.3365 134 29.5 134.837 29.5 135.868C29.5 136.9 30.3365 137.737 31.3684 137.737H42.6316C43.6635 137.737 44.5 136.9 44.5 135.868C44.5 134.837 43.6635 134 42.6316 134ZM31.3684 132.5C29.5081 132.5 28 134.008 28 135.868C28 137.729 29.5081 139.237 31.3684 139.237H42.6316C44.4919 139.237 46 137.729 46 135.868C46 134.008 44.4919 132.5 42.6316 132.5H31.3684Z" fill="#131F60"/>
<path fill-rule="evenodd" clip-rule="evenodd" d="M42.6316 143.264H31.3684C30.3365 143.264 29.5 144.1 29.5 145.132C29.5 146.164 30.3365 147.001 31.3684 147.001H42.6316C43.6635 147.001 44.5 146.164 44.5 145.132C44.5 144.1 43.6635 143.264 42.6316 143.264ZM31.3684 141.764C29.5081 141.764 28 143.272 28 145.132C28 146.992 29.5081 148.501 31.3684 148.501H42.6316C44.4919 148.501 46 146.992 46 145.132C46 143.272 44.4919 141.764 42.6316 141.764H31.3684Z" fill="#131F60"/>
<path d="M60.232 147V135.08H61.992L66.472 141.288H65.592L69.992 135.08H71.752V147H69.88V137.304L70.584 137.496L66.088 143.64H65.896L61.496 137.496L62.12 137.304V147H60.232ZM74.9684 150.536C74.755 150.536 74.5417 150.515 74.3284 150.472C74.1257 150.44 73.939 150.387 73.7684 150.312V148.76C73.8964 148.792 74.051 148.819 74.2324 148.84C74.4137 148.872 74.5897 148.888 74.7604 148.888C75.2617 148.888 75.6297 148.776 75.8644 148.552C76.1097 148.339 76.3284 148.003 76.5204 147.544L77.0964 146.232L77.0644 147.752L73.3204 138.344H75.2564L78.0244 145.56H77.3684L80.1204 138.344H82.0724L78.2484 147.944C78.0457 148.456 77.7897 148.904 77.4804 149.288C77.1817 149.683 76.8244 149.987 76.4084 150.2C76.003 150.424 75.523 150.536 74.9684 150.536ZM90.7786 147.192C90.032 147.192 89.3386 147.053 88.6986 146.776C88.0586 146.488 87.5146 146.099 87.0666 145.608C86.6186 145.117 86.288 144.552 86.0746 143.912L87.6746 143.24C87.9626 143.976 88.384 144.541 88.9386 144.936C89.4933 145.331 90.1333 145.528 90.8586 145.528C91.2853 145.528 91.6586 145.464 91.9786 145.336C92.2986 145.197 92.544 145.005 92.7146 144.76C92.896 144.515 92.9866 144.232 92.9866 143.912C92.9866 143.475 92.864 143.128 92.6186 142.872C92.3733 142.616 92.0106 142.413 91.5306 142.264L89.2906 141.56C88.3946 141.283 87.712 140.861 87.2426 140.296C86.7733 139.72 86.5386 139.048 86.5386 138.28C86.5386 137.608 86.704 137.021 87.0346 136.52C87.3653 136.008 87.8186 135.608 88.3946 135.32C88.9813 135.032 89.648 134.888 90.3946 134.888C91.1093 134.888 91.76 135.016 92.3466 135.272C92.9333 135.517 93.4346 135.859 93.8506 136.296C94.2773 136.733 94.5866 137.24 94.7786 137.816L93.2106 138.504C92.976 137.875 92.608 137.389 92.1066 137.048C91.616 136.707 91.0453 136.536 90.3946 136.536C90 136.536 89.6533 136.605 89.3546 136.744C89.056 136.872 88.8213 137.064 88.6506 137.32C88.4906 137.565 88.4106 137.853 88.4106 138.184C88.4106 138.568 88.5333 138.909 88.7786 139.208C89.024 139.507 89.3973 139.731 89.8986 139.88L91.9786 140.536C92.928 140.824 93.6426 141.24 94.1226 141.784C94.6026 142.317 94.8426 142.984 94.8426 143.784C94.8426 144.445 94.6666 145.032 94.3146 145.544C93.9733 146.056 93.4986 146.461 92.8906 146.76C92.2826 147.048 91.5786 147.192 90.7786 147.192ZM100.69 147.096C99.7833 147.096 99.0793 146.84 98.578 146.328C98.0767 145.816 97.826 145.096 97.826 144.168V139.976H96.306V138.344H96.546C96.9513 138.344 97.266 138.227 97.49 137.992C97.714 137.757 97.826 137.437 97.826 137.032V136.36H99.634V138.344H101.602V139.976H99.634V144.088C99.634 144.387 99.682 144.643 99.778 144.856C99.874 145.059 100.029 145.219 100.242 145.336C100.455 145.443 100.733 145.496 101.074 145.496C101.159 145.496 101.255 145.491 101.362 145.48C101.469 145.469 101.57 145.459 101.666 145.448V147C101.517 147.021 101.351 147.043 101.17 147.064C100.989 147.085 100.829 147.096 100.69 147.096ZM107.61 147.192C106.778 147.192 106.015 146.995 105.322 146.6C104.639 146.205 104.095 145.667 103.69 144.984C103.285 144.301 103.082 143.528 103.082 142.664C103.082 141.789 103.285 141.016 103.69 140.344C104.095 139.661 104.639 139.128 105.322 138.744C106.005 138.349 106.767 138.152 107.61 138.152C108.463 138.152 109.226 138.349 109.898 138.744C110.581 139.128 111.119 139.661 111.514 140.344C111.919 141.016 112.122 141.789 112.122 142.664C112.122 143.539 111.919 144.317 111.514 145C111.109 145.683 110.565 146.221 109.882 146.616C109.199 147 108.442 147.192 107.61 147.192ZM107.61 145.512C108.122 145.512 108.575 145.389 108.97 145.144C109.365 144.899 109.674 144.563 109.898 144.136C110.133 143.699 110.25 143.208 110.25 142.664C110.25 142.12 110.133 141.635 109.898 141.208C109.674 140.781 109.365 140.445 108.97 140.2C108.575 139.955 108.122 139.832 107.61 139.832C107.109 139.832 106.655 139.955 106.25 140.2C105.855 140.445 105.541 140.781 105.306 141.208C105.082 141.635 104.97 142.12 104.97 142.664C104.97 143.208 105.082 143.699 105.306 144.136C105.541 144.563 105.855 144.899 106.25 145.144C106.655 145.389 107.109 145.512 107.61 145.512ZM114.047 147V138.344H115.775V140.088L115.615 139.832C115.807 139.267 116.117 138.861 116.543 138.616C116.97 138.36 117.482 138.232 118.079 138.232H118.607V139.88H117.855C117.258 139.88 116.773 140.067 116.399 140.44C116.037 140.803 115.855 141.325 115.855 142.008V147H114.047ZM124.068 147.192C123.204 147.192 122.436 146.995 121.764 146.6C121.103 146.195 120.585 145.651 120.212 144.968C119.839 144.275 119.652 143.501 119.652 142.648C119.652 141.773 119.839 141 120.212 140.328C120.596 139.656 121.108 139.128 121.748 138.744C122.388 138.349 123.113 138.152 123.924 138.152C124.575 138.152 125.156 138.264 125.668 138.488C126.18 138.712 126.612 139.021 126.964 139.416C127.316 139.8 127.583 140.243 127.764 140.744C127.956 141.245 128.052 141.779 128.052 142.344C128.052 142.483 128.047 142.627 128.036 142.776C128.025 142.925 128.004 143.064 127.972 143.192H121.076V141.752H126.948L126.084 142.408C126.191 141.885 126.153 141.421 125.972 141.016C125.801 140.6 125.535 140.275 125.172 140.04C124.82 139.795 124.404 139.672 123.924 139.672C123.444 139.672 123.017 139.795 122.644 140.04C122.271 140.275 121.983 140.616 121.78 141.064C121.577 141.501 121.497 142.035 121.54 142.664C121.487 143.251 121.567 143.763 121.78 144.2C122.004 144.637 122.313 144.979 122.708 145.224C123.113 145.469 123.572 145.592 124.084 145.592C124.607 145.592 125.049 145.475 125.412 145.24C125.785 145.005 126.079 144.701 126.292 144.328L127.764 145.048C127.593 145.453 127.327 145.821 126.964 146.152C126.612 146.472 126.185 146.728 125.684 146.92C125.193 147.101 124.655 147.192 124.068 147.192Z" fill="#131F60"/>
<path fill-rule="evenodd" clip-rule="evenodd" d="M29.9163 190.75L37.2996 199.478L44.6828 190.75H29.9163ZM28.4231 191.307C27.7358 190.495 28.3133 189.25 29.3774 189.25H45.2217C46.2858 189.25 46.8633 190.495 46.1761 191.307L38.2539 200.673C37.7546 201.263 36.8445 201.263 36.3452 200.673L28.4231 191.307Z" fill="#131F60"/>
<path fill-rule="evenodd" clip-rule="evenodd" d="M37.3477 199.51C37.7619 199.51 38.0977 199.846 38.0977 200.26V203.5C38.0977 203.914 37.7619 204.25 37.3477 204.25C36.9334 204.25 36.5977 203.914 36.5977 203.5V200.26C36.5977 199.846 36.9334 199.51 37.3477 199.51Z" fill="#131F60"/>
<path fill-rule="evenodd" clip-rule="evenodd" d="M32.9785 195.939C32.9785 195.525 33.3143 195.189 33.7285 195.189L40.8714 195.189C41.2856 195.189 41.6214 195.525 41.6214 195.939C41.6214 196.354 41.2856 196.689 40.8714 196.689L33.7285 196.689C33.3143 196.689 32.9785 196.354 32.9785 195.939Z" fill="#131F60"/>
<path d="M60.232 203V191.08H67.992V192.76H62.12V196.344H67.352V198.024H62.12V203H60.232ZM72.4915 203.192C71.8408 203.192 71.2702 203.048 70.7795 202.76C70.2888 202.461 69.9048 202.051 69.6275 201.528C69.3608 200.995 69.2275 200.381 69.2275 199.688V194.344H71.0355V199.528C71.0355 199.923 71.1155 200.269 71.2755 200.568C71.4355 200.867 71.6595 201.101 71.9475 201.272C72.2355 201.432 72.5662 201.512 72.9395 201.512C73.3235 201.512 73.6595 201.427 73.9475 201.256C74.2355 201.085 74.4595 200.845 74.6195 200.536C74.7902 200.227 74.8755 199.864 74.8755 199.448V194.344H76.6675V203H74.9555V201.304L75.1475 201.528C74.9448 202.061 74.6088 202.472 74.1395 202.76C73.6702 203.048 73.1208 203.192 72.4915 203.192ZM78.9385 203V194.344H80.6665V196.04L80.4585 195.816C80.6718 195.272 81.0132 194.861 81.4825 194.584C81.9518 194.296 82.4958 194.152 83.1145 194.152C83.7545 194.152 84.3198 194.291 84.8105 194.568C85.3012 194.845 85.6852 195.229 85.9625 195.72C86.2398 196.211 86.3785 196.776 86.3785 197.416V203H84.5865V197.896C84.5865 197.459 84.5065 197.091 84.3465 196.792C84.1865 196.483 83.9572 196.248 83.6585 196.088C83.3705 195.917 83.0398 195.832 82.6665 195.832C82.2932 195.832 81.9572 195.917 81.6585 196.088C81.3705 196.248 81.1465 196.483 80.9865 196.792C80.8265 197.101 80.7465 197.469 80.7465 197.896V203H78.9385ZM88.4735 203V194.344H90.2015V196.04L89.9935 195.816C90.2068 195.272 90.5482 194.861 91.0175 194.584C91.4868 194.296 92.0308 194.152 92.6495 194.152C93.2895 194.152 93.8548 194.291 94.3455 194.568C94.8362 194.845 95.2202 195.229 95.4975 195.72C95.7748 196.211 95.9135 196.776 95.9135 197.416V203H94.1215V197.896C94.1215 197.459 94.0415 197.091 93.8815 196.792C93.7215 196.483 93.4922 196.248 93.1935 196.088C92.9055 195.917 92.5748 195.832 92.2015 195.832C91.8282 195.832 91.4922 195.917 91.1935 196.088C90.9055 196.248 90.6815 196.483 90.5215 196.792C90.3615 197.101 90.2815 197.469 90.2815 197.896V203H88.4735ZM102.072 203.192C101.208 203.192 100.44 202.995 99.7685 202.6C99.1072 202.195 98.5898 201.651 98.2165 200.968C97.8432 200.275 97.6565 199.501 97.6565 198.648C97.6565 197.773 97.8432 197 98.2165 196.328C98.6005 195.656 99.1125 195.128 99.7525 194.744C100.392 194.349 101.118 194.152 101.928 194.152C102.579 194.152 103.16 194.264 103.672 194.488C104.184 194.712 104.616 195.021 104.969 195.416C105.321 195.8 105.587 196.243 105.768 196.744C105.96 197.245 106.056 197.779 106.056 198.344C106.056 198.483 106.051 198.627 106.04 198.776C106.03 198.925 106.008 199.064 105.976 199.192H99.0805V197.752H104.952L104.088 198.408C104.195 197.885 104.158 197.421 103.976 197.016C103.806 196.6 103.539 196.275 103.176 196.04C102.824 195.795 102.408 195.672 101.928 195.672C101.448 195.672 101.022 195.795 100.648 196.04C100.275 196.275 99.9872 196.616 99.7845 197.064C99.5818 197.501 99.5018 198.035 99.5445 198.664C99.4912 199.251 99.5712 199.763 99.7845 200.2C100.008 200.637 100.318 200.979 100.712 201.224C101.118 201.469 101.576 201.592 102.088 201.592C102.611 201.592 103.054 201.475 103.416 201.24C103.79 201.005 104.083 200.701 104.296 200.328L105.768 201.048C105.598 201.453 105.331 201.821 104.969 202.152C104.616 202.472 104.19 202.728 103.688 202.92C103.198 203.101 102.659 203.192 102.072 203.192ZM107.981 203V190.888H109.789V203H107.981ZM115.263 203.192C114.378 203.192 113.599 202.973 112.927 202.536C112.266 202.099 111.802 201.512 111.535 200.776L112.927 200.12C113.162 200.611 113.482 201 113.887 201.288C114.303 201.576 114.762 201.72 115.263 201.72C115.69 201.72 116.036 201.624 116.303 201.432C116.57 201.24 116.703 200.979 116.703 200.648C116.703 200.435 116.644 200.264 116.527 200.136C116.41 199.997 116.26 199.885 116.079 199.8C115.908 199.715 115.732 199.651 115.551 199.608L114.191 199.224C113.444 199.011 112.884 198.691 112.511 198.264C112.148 197.827 111.967 197.32 111.967 196.744C111.967 196.221 112.1 195.768 112.367 195.384C112.634 194.989 113.002 194.685 113.471 194.472C113.94 194.259 114.468 194.152 115.055 194.152C115.844 194.152 116.548 194.349 117.167 194.744C117.786 195.128 118.223 195.667 118.479 196.36L117.087 197.016C116.916 196.6 116.644 196.269 116.271 196.024C115.908 195.779 115.498 195.656 115.039 195.656C114.644 195.656 114.33 195.752 114.095 195.944C113.86 196.125 113.743 196.365 113.743 196.664C113.743 196.867 113.796 197.037 113.903 197.176C114.01 197.304 114.148 197.411 114.319 197.496C114.49 197.571 114.666 197.635 114.847 197.688L116.255 198.104C116.97 198.307 117.519 198.627 117.903 199.064C118.287 199.491 118.479 200.003 118.479 200.6C118.479 201.112 118.34 201.565 118.063 201.96C117.796 202.344 117.423 202.648 116.943 202.872C116.463 203.085 115.903 203.192 115.263 203.192Z" fill="#131F60"/>
<path fill-rule="evenodd" clip-rule="evenodd" d="M37 260C41.1421 260 44.5 256.642 44.5 252.5C44.5 248.358 41.1421 245 37 245C32.8579 245 29.5 248.358 29.5 252.5C29.5 256.642 32.8579 260 37 260ZM37 261.5C41.9706 261.5 46 257.471 46 252.5C46 247.529 41.9706 243.5 37 243.5C32.0294 243.5 28 247.529 28 252.5C28 257.471 32.0294 261.5 37 261.5Z" fill="#131F60"/>
<path fill-rule="evenodd" clip-rule="evenodd" d="M37 248.15C37.4142 248.15 37.75 248.486 37.75 248.9V252.65H40.6C41.0142 252.65 41.35 252.986 41.35 253.4C41.35 253.815 41.0142 254.15 40.6 254.15H37C36.5858 254.15 36.25 253.815 36.25 253.4V248.9C36.25 248.486 36.5858 248.15 37 248.15Z" fill="#131F60"/>
<path d="M59.176 259L63.368 247.08H65.704L69.896 259H67.88L66.968 256.328H62.12L61.192 259H59.176ZM62.664 254.648H66.392L64.28 248.408H64.808L62.664 254.648ZM71.2941 262.2V250.344H73.0221V252.136L72.8141 251.72C73.1341 251.229 73.5608 250.845 74.0941 250.568C74.6275 250.291 75.2355 250.152 75.9181 250.152C76.7395 250.152 77.4755 250.349 78.1261 250.744C78.7875 251.139 79.3048 251.677 79.6781 252.36C80.0621 253.043 80.2541 253.811 80.2541 254.664C80.2541 255.517 80.0621 256.285 79.6781 256.968C79.3048 257.651 78.7928 258.195 78.1421 258.6C77.4915 258.995 76.7501 259.192 75.9181 259.192C75.2461 259.192 74.6328 259.053 74.0781 258.776C73.5341 258.499 73.1128 258.099 72.8141 257.576L73.1021 257.24V262.2H71.2941ZM75.7421 257.512C76.2541 257.512 76.7075 257.389 77.1021 257.144C77.4968 256.899 77.8061 256.563 78.0301 256.136C78.2648 255.699 78.3821 255.208 78.3821 254.664C78.3821 254.12 78.2648 253.635 78.0301 253.208C77.8061 252.781 77.4968 252.445 77.1021 252.2C76.7075 251.955 76.2541 251.832 75.7421 251.832C75.2408 251.832 74.7875 251.955 74.3821 252.2C73.9875 252.445 73.6728 252.781 73.4381 253.208C73.2141 253.635 73.1021 254.12 73.1021 254.664C73.1021 255.208 73.2141 255.699 73.4381 256.136C73.6728 256.563 73.9875 256.899 74.3821 257.144C74.7875 257.389 75.2408 257.512 75.7421 257.512ZM82.1729 262.2V250.344H83.9009V252.136L83.6929 251.72C84.0129 251.229 84.4395 250.845 84.9729 250.568C85.5062 250.291 86.1142 250.152 86.7969 250.152C87.6182 250.152 88.3542 250.349 89.0049 250.744C89.6662 251.139 90.1835 251.677 90.5569 252.36C90.9409 253.043 91.1329 253.811 91.1329 254.664C91.1329 255.517 90.9409 256.285 90.5569 256.968C90.1835 257.651 89.6715 258.195 89.0209 258.6C88.3702 258.995 87.6289 259.192 86.7969 259.192C86.1249 259.192 85.5115 259.053 84.9569 258.776C84.4129 258.499 83.9915 258.099 83.6929 257.576L83.9809 257.24V262.2H82.1729ZM86.6209 257.512C87.1329 257.512 87.5862 257.389 87.9809 257.144C88.3755 256.899 88.6849 256.563 88.9089 256.136C89.1435 255.699 89.2609 255.208 89.2609 254.664C89.2609 254.12 89.1435 253.635 88.9089 253.208C88.6849 252.781 88.3755 252.445 87.9809 252.2C87.5862 251.955 87.1329 251.832 86.6209 251.832C86.1195 251.832 85.6662 251.955 85.2609 252.2C84.8662 252.445 84.5515 252.781 84.3169 253.208C84.0929 253.635 83.9809 254.12 83.9809 254.664C83.9809 255.208 84.0929 255.699 84.3169 256.136C84.5515 256.563 84.8662 256.899 85.2609 257.144C85.6662 257.389 86.1195 257.512 86.6209 257.512ZM97.2276 259.192C96.3956 259.192 95.633 258.995 94.9396 258.6C94.257 258.205 93.713 257.667 93.3076 256.984C92.9023 256.301 92.6996 255.528 92.6996 254.664C92.6996 253.789 92.9023 253.016 93.3076 252.344C93.713 251.661 94.257 251.128 94.9396 250.744C95.6223 250.349 96.385 250.152 97.2276 250.152C98.081 250.152 98.8436 250.349 99.5156 250.744C100.198 251.128 100.737 251.661 101.132 252.344C101.537 253.016 101.74 253.789 101.74 254.664C101.74 255.539 101.537 256.317 101.132 257C100.726 257.683 100.182 258.221 99.4996 258.616C98.817 259 98.0596 259.192 97.2276 259.192ZM97.2276 257.512C97.7396 257.512 98.193 257.389 98.5876 257.144C98.9823 256.899 99.2916 256.563 99.5156 256.136C99.7503 255.699 99.8676 255.208 99.8676 254.664C99.8676 254.12 99.7503 253.635 99.5156 253.208C99.2916 252.781 98.9823 252.445 98.5876 252.2C98.193 251.955 97.7396 251.832 97.2276 251.832C96.7263 251.832 96.273 251.955 95.8676 252.2C95.473 252.445 95.1583 252.781 94.9236 253.208C94.6996 253.635 94.5876 254.12 94.5876 254.664C94.5876 255.208 94.6996 255.699 94.9236 256.136C95.1583 256.563 95.473 256.899 95.8676 257.144C96.273 257.389 96.7263 257.512 97.2276 257.512ZM103.665 259V250.344H105.473V259H103.665ZM103.665 249.16V247.08H105.473V249.16H103.665ZM107.747 259V250.344H109.475V252.04L109.267 251.816C109.48 251.272 109.821 250.861 110.291 250.584C110.76 250.296 111.304 250.152 111.923 250.152C112.563 250.152 113.128 250.291 113.619 250.568C114.109 250.845 114.493 251.229 114.771 251.72C115.048 252.211 115.187 252.776 115.187 253.416V259H113.395V253.896C113.395 253.459 113.315 253.091 113.155 252.792C112.995 252.483 112.765 252.248 112.467 252.088C112.179 251.917 111.848 251.832 111.475 251.832C111.101 251.832 110.765 251.917 110.467 252.088C110.179 252.248 109.955 252.483 109.795 252.792C109.635 253.101 109.555 253.469 109.555 253.896V259H107.747ZM121.026 259.096C120.119 259.096 119.415 258.84 118.914 258.328C118.412 257.816 118.162 257.096 118.162 256.168V251.976H116.642V250.344H116.882C117.287 250.344 117.602 250.227 117.826 249.992C118.05 249.757 118.162 249.437 118.162 249.032V248.36H119.97V250.344H121.938V251.976H119.97V256.088C119.97 256.387 120.018 256.643 120.114 256.856C120.21 257.059 120.364 257.219 120.578 257.336C120.791 257.443 121.068 257.496 121.41 257.496C121.495 257.496 121.591 257.491 121.698 257.48C121.804 257.469 121.906 257.459 122.002 257.448V259C121.852 259.021 121.687 259.043 121.506 259.064C121.324 259.085 121.164 259.096 121.026 259.096ZM123.926 259V250.344H125.654V252.216L125.43 251.928C125.611 251.341 125.942 250.899 126.422 250.6C126.902 250.301 127.451 250.152 128.07 250.152C128.763 250.152 129.377 250.339 129.91 250.712C130.454 251.075 130.817 251.56 130.998 252.168L130.486 252.216C130.742 251.523 131.131 251.005 131.654 250.664C132.187 250.323 132.795 250.152 133.478 250.152C134.075 250.152 134.614 250.291 135.094 250.568C135.585 250.845 135.974 251.229 136.262 251.72C136.55 252.211 136.694 252.771 136.694 253.4V259H134.886V253.896C134.886 253.459 134.806 253.091 134.646 252.792C134.497 252.483 134.283 252.248 134.006 252.088C133.739 251.917 133.425 251.832 133.062 251.832C132.699 251.832 132.379 251.917 132.102 252.088C131.825 252.248 131.606 252.483 131.446 252.792C131.286 253.101 131.206 253.469 131.206 253.896V259H129.414V253.896C129.414 253.459 129.334 253.091 129.174 252.792C129.025 252.483 128.811 252.248 128.534 252.088C128.267 251.917 127.947 251.832 127.574 251.832C127.211 251.832 126.891 251.917 126.614 252.088C126.337 252.248 126.118 252.483 125.958 252.792C125.809 253.101 125.734 253.469 125.734 253.896V259H123.926ZM142.853 259.192C141.989 259.192 141.221 258.995 140.549 258.6C139.888 258.195 139.37 257.651 138.997 256.968C138.624 256.275 138.437 255.501 138.437 254.648C138.437 253.773 138.624 253 138.997 252.328C139.381 251.656 139.893 251.128 140.533 250.744C141.173 250.349 141.898 250.152 142.709 250.152C143.36 250.152 143.941 250.264 144.453 250.488C144.965 250.712 145.397 251.021 145.749 251.416C146.101 251.8 146.368 252.243 146.549 252.744C146.741 253.245 146.837 253.779 146.837 254.344C146.837 254.483 146.832 254.627 146.821 254.776C146.81 254.925 146.789 255.064 146.757 255.192H139.861V253.752H145.733L144.869 254.408C144.976 253.885 144.938 253.421 144.757 253.016C144.586 252.6 144.32 252.275 143.957 252.04C143.605 251.795 143.189 251.672 142.709 251.672C142.229 251.672 141.802 251.795 141.429 252.04C141.056 252.275 140.768 252.616 140.565 253.064C140.362 253.501 140.282 254.035 140.325 254.664C140.272 255.251 140.352 255.763 140.565 256.2C140.789 256.637 141.098 256.979 141.493 257.224C141.898 257.469 142.357 257.592 142.869 257.592C143.392 257.592 143.834 257.475 144.197 257.24C144.57 257.005 144.864 256.701 145.077 256.328L146.549 257.048C146.378 257.453 146.112 257.821 145.749 258.152C145.397 258.472 144.97 258.728 144.469 258.92C143.978 259.101 143.44 259.192 142.853 259.192ZM148.762 259V250.344H150.49V252.04L150.282 251.816C150.495 251.272 150.836 250.861 151.306 250.584C151.775 250.296 152.319 250.152 152.938 250.152C153.578 250.152 154.143 250.291 154.634 250.568C155.124 250.845 155.508 251.229 155.786 251.72C156.063 252.211 156.202 252.776 156.202 253.416V259H154.41V253.896C154.41 253.459 154.33 253.091 154.17 252.792C154.01 252.483 153.78 252.248 153.482 252.088C153.194 251.917 152.863 251.832 152.49 251.832C152.116 251.832 151.78 251.917 151.482 252.088C151.194 252.248 150.97 252.483 150.81 252.792C150.65 253.101 150.57 253.469 150.57 253.896V259H148.762ZM162.041 259.096C161.134 259.096 160.43 258.84 159.929 258.328C159.427 257.816 159.177 257.096 159.177 256.168V251.976H157.657V250.344H157.897C158.302 250.344 158.617 250.227 158.841 249.992C159.065 249.757 159.177 249.437 159.177 249.032V248.36H160.985V250.344H162.953V251.976H160.985V256.088C160.985 256.387 161.033 256.643 161.129 256.856C161.225 257.059 161.379 257.219 161.593 257.336C161.806 257.443 162.083 257.496 162.425 257.496C162.51 257.496 162.606 257.491 162.713 257.48C162.819 257.469 162.921 257.459 163.017 257.448V259C162.867 259.021 162.702 259.043 162.521 259.064C162.339 259.085 162.179 259.096 162.041 259.096ZM168.141 259.192C167.256 259.192 166.477 258.973 165.805 258.536C165.144 258.099 164.68 257.512 164.413 256.776L165.805 256.12C166.04 256.611 166.36 257 166.765 257.288C167.181 257.576 167.64 257.72 168.141 257.72C168.568 257.72 168.914 257.624 169.181 257.432C169.448 257.24 169.581 256.979 169.581 256.648C169.581 256.435 169.522 256.264 169.405 256.136C169.288 255.997 169.138 255.885 168.957 255.8C168.786 255.715 168.61 255.651 168.429 255.608L167.069 255.224C166.322 255.011 165.762 254.691 165.389 254.264C165.026 253.827 164.845 253.32 164.845 252.744C164.845 252.221 164.978 251.768 165.245 251.384C165.512 250.989 165.88 250.685 166.349 250.472C166.818 250.259 167.346 250.152 167.933 250.152C168.722 250.152 169.426 250.349 170.045 250.744C170.664 251.128 171.101 251.667 171.357 252.36L169.965 253.016C169.794 252.6 169.522 252.269 169.149 252.024C168.786 251.779 168.376 251.656 167.917 251.656C167.522 251.656 167.208 251.752 166.973 251.944C166.738 252.125 166.621 252.365 166.621 252.664C166.621 252.867 166.674 253.037 166.781 253.176C166.888 253.304 167.026 253.411 167.197 253.496C167.368 253.571 167.544 253.635 167.725 253.688L169.133 254.104C169.848 254.307 170.397 254.627 170.781 255.064C171.165 255.491 171.357 256.003 171.357 256.6C171.357 257.112 171.218 257.565 170.941 257.96C170.674 258.344 170.301 258.648 169.821 258.872C169.341 259.085 168.781 259.192 168.141 259.192Z" fill="#131F60"/>
<path fill-rule="evenodd" clip-rule="evenodd" d="M42.9648 305.285H30.9648C30.1364 305.285 29.4648 305.957 29.4648 306.785V313.998C29.4648 314.827 30.1364 315.498 30.9648 315.498H42.9648C43.7933 315.498 44.4648 314.827 44.4648 313.998V306.785C44.4648 305.957 43.7933 305.285 42.9648 305.285ZM30.9648 303.785C29.308 303.785 27.9648 305.128 27.9648 306.785V313.998C27.9648 315.655 29.308 316.998 30.9648 316.998H42.9648C44.6217 316.998 45.9648 315.655 45.9648 313.998V306.785C45.9648 305.128 44.6217 303.785 42.9648 303.785H30.9648Z" fill="#131F60"/>
<path fill-rule="evenodd" clip-rule="evenodd" d="M39.8378 302.192C39.5407 301.551 38.7709 301.283 38.1398 301.602L29.9282 305.751C29.5585 305.937 29.1074 305.789 28.9206 305.419C28.7338 305.05 28.8821 304.598 29.2518 304.412L37.4634 300.263C38.8519 299.561 40.5454 300.15 41.199 301.562L42.4471 304.258C42.6211 304.634 42.4575 305.079 42.0816 305.254C41.7057 305.428 41.2599 305.264 41.0859 304.888L39.8378 302.192Z" fill="#131F60"/>
<path d="M60.232 315V303.08H62.12V315H60.232ZM64.5754 315V306.344H66.3034V308.04L66.0954 307.816C66.3087 307.272 66.65 306.861 67.1194 306.584C67.5887 306.296 68.1327 306.152 68.7514 306.152C69.3914 306.152 69.9567 306.291 70.4474 306.568C70.938 306.845 71.322 307.229 71.5994 307.72C71.8767 308.211 72.0154 308.776 72.0154 309.416V315H70.2234V309.896C70.2234 309.459 70.1434 309.091 69.9834 308.792C69.8234 308.483 69.594 308.248 69.2954 308.088C69.0074 307.917 68.6767 307.832 68.3034 307.832C67.93 307.832 67.594 307.917 67.2954 308.088C67.0074 308.248 66.7834 308.483 66.6234 308.792C66.4634 309.101 66.3834 309.469 66.3834 309.896V315H64.5754ZM78.2224 315.192C77.3584 315.192 76.5904 314.995 75.9184 314.6C75.257 314.195 74.729 313.651 74.3344 312.968C73.9504 312.285 73.7584 311.512 73.7584 310.648C73.7584 309.795 73.9504 309.027 74.3344 308.344C74.7184 307.661 75.2464 307.128 75.9184 306.744C76.5904 306.349 77.3584 306.152 78.2224 306.152C78.809 306.152 79.3584 306.259 79.8704 306.472C80.3824 306.675 80.825 306.957 81.1984 307.32C81.5824 307.683 81.865 308.104 82.0464 308.584L80.4624 309.32C80.281 308.872 79.9877 308.515 79.5824 308.248C79.1877 307.971 78.7344 307.832 78.2224 307.832C77.7317 307.832 77.289 307.955 76.8944 308.2C76.5104 308.435 76.2064 308.771 75.9824 309.208C75.7584 309.635 75.6464 310.12 75.6464 310.664C75.6464 311.208 75.7584 311.699 75.9824 312.136C76.2064 312.563 76.5104 312.899 76.8944 313.144C77.289 313.389 77.7317 313.512 78.2224 313.512C78.745 313.512 79.1984 313.379 79.5824 313.112C79.977 312.835 80.2704 312.467 80.4624 312.008L82.0464 312.76C81.8757 313.219 81.5984 313.635 81.2144 314.008C80.841 314.371 80.3984 314.659 79.8864 314.872C79.3744 315.085 78.8197 315.192 78.2224 315.192ZM88.1495 315.192C87.3175 315.192 86.5548 314.995 85.8615 314.6C85.1788 314.205 84.6348 313.667 84.2295 312.984C83.8242 312.301 83.6215 311.528 83.6215 310.664C83.6215 309.789 83.8242 309.016 84.2295 308.344C84.6348 307.661 85.1788 307.128 85.8615 306.744C86.5442 306.349 87.3068 306.152 88.1495 306.152C89.0028 306.152 89.7655 306.349 90.4375 306.744C91.1202 307.128 91.6588 307.661 92.0535 308.344C92.4588 309.016 92.6615 309.789 92.6615 310.664C92.6615 311.539 92.4588 312.317 92.0535 313C91.6482 313.683 91.1042 314.221 90.4215 314.616C89.7388 315 88.9815 315.192 88.1495 315.192ZM88.1495 313.512C88.6615 313.512 89.1148 313.389 89.5095 313.144C89.9042 312.899 90.2135 312.563 90.4375 312.136C90.6722 311.699 90.7895 311.208 90.7895 310.664C90.7895 310.12 90.6722 309.635 90.4375 309.208C90.2135 308.781 89.9042 308.445 89.5095 308.2C89.1148 307.955 88.6615 307.832 88.1495 307.832C87.6482 307.832 87.1948 307.955 86.7895 308.2C86.3948 308.445 86.0802 308.781 85.8455 309.208C85.6215 309.635 85.5095 310.12 85.5095 310.664C85.5095 311.208 85.6215 311.699 85.8455 312.136C86.0802 312.563 86.3948 312.899 86.7895 313.144C87.1948 313.389 87.6482 313.512 88.1495 313.512ZM94.5866 315V306.344H96.3146V308.216L96.0906 307.928C96.272 307.341 96.6026 306.899 97.0826 306.6C97.5626 306.301 98.112 306.152 98.7306 306.152C99.424 306.152 100.037 306.339 100.571 306.712C101.115 307.075 101.477 307.56 101.659 308.168L101.147 308.216C101.403 307.523 101.792 307.005 102.315 306.664C102.848 306.323 103.456 306.152 104.139 306.152C104.736 306.152 105.275 306.291 105.755 306.568C106.245 306.845 106.635 307.229 106.923 307.72C107.211 308.211 107.355 308.771 107.355 309.4V315H105.547V309.896C105.547 309.459 105.467 309.091 105.307 308.792C105.157 308.483 104.944 308.248 104.667 308.088C104.4 307.917 104.085 307.832 103.723 307.832C103.36 307.832 103.04 307.917 102.763 308.088C102.485 308.248 102.267 308.483 102.107 308.792C101.947 309.101 101.867 309.469 101.867 309.896V315H100.075V309.896C100.075 309.459 99.9946 309.091 99.8346 308.792C99.6853 308.483 99.472 308.248 99.1946 308.088C98.928 307.917 98.608 307.832 98.2346 307.832C97.872 307.832 97.552 307.917 97.2746 308.088C96.9973 308.248 96.7786 308.483 96.6186 308.792C96.4693 309.101 96.3946 309.469 96.3946 309.896V315H94.5866ZM113.514 315.192C112.65 315.192 111.882 314.995 111.21 314.6C110.548 314.195 110.031 313.651 109.658 312.968C109.284 312.275 109.098 311.501 109.098 310.648C109.098 309.773 109.284 309 109.658 308.328C110.042 307.656 110.554 307.128 111.194 306.744C111.834 306.349 112.559 306.152 113.37 306.152C114.02 306.152 114.602 306.264 115.114 306.488C115.626 306.712 116.058 307.021 116.41 307.416C116.762 307.8 117.028 308.243 117.21 308.744C117.402 309.245 117.498 309.779 117.498 310.344C117.498 310.483 117.492 310.627 117.482 310.776C117.471 310.925 117.45 311.064 117.418 311.192H110.522V309.752H116.394L115.53 310.408C115.636 309.885 115.599 309.421 115.418 309.016C115.247 308.6 114.98 308.275 114.618 308.04C114.266 307.795 113.85 307.672 113.37 307.672C112.89 307.672 112.463 307.795 112.09 308.04C111.716 308.275 111.428 308.616 111.226 309.064C111.023 309.501 110.943 310.035 110.986 310.664C110.932 311.251 111.012 311.763 111.226 312.2C111.45 312.637 111.759 312.979 112.154 313.224C112.559 313.469 113.018 313.592 113.53 313.592C114.052 313.592 114.495 313.475 114.858 313.24C115.231 313.005 115.524 312.701 115.738 312.328L117.21 313.048C117.039 313.453 116.772 313.821 116.41 314.152C116.058 314.472 115.631 314.728 115.13 314.92C114.639 315.101 114.1 315.192 113.514 315.192Z" fill="#131F60"/>
<path fill-rule="evenodd" clip-rule="evenodd" d="M37 372C41.1421 372 44.5 368.642 44.5 364.5C44.5 360.358 41.1421 357 37 357C32.8579 357 29.5 360.358 29.5 364.5C29.5 368.642 32.8579 372 37 372ZM37 373.5C41.9706 373.5 46 369.471 46 364.5C46 359.529 41.9706 355.5 37 355.5C32.0294 355.5 28 359.529 28 364.5C28 369.471 32.0294 373.5 37 373.5Z" fill="#131F60"/>
<path fill-rule="evenodd" clip-rule="evenodd" d="M33.5034 366.526C33.8139 366.252 34.2878 366.281 34.5621 366.591C35.0153 367.104 35.8285 367.707 36.7565 367.878C37.6198 368.038 38.6835 367.845 39.7909 366.591C40.0651 366.281 40.5391 366.252 40.8495 366.526C41.1599 366.8 41.1893 367.274 40.915 367.584C39.4813 369.207 37.8978 369.614 36.4847 369.354C35.1362 369.105 34.0436 368.27 33.4379 367.584C33.1637 367.274 33.193 366.8 33.5034 366.526Z" fill="#131F60"/>
<path fill-rule="evenodd" clip-rule="evenodd" d="M35 361.104C35.4142 361.104 35.75 361.439 35.75 361.854V363.501C35.75 363.915 35.4142 364.251 35 364.251C34.5858 364.251 34.25 363.915 34.25 363.501V361.854C34.25 361.439 34.5858 361.104 35 361.104Z" fill="#131F60"/>
<path fill-rule="evenodd" clip-rule="evenodd" d="M39.2344 361.104C39.6486 361.104 39.9844 361.439 39.9844 361.854V363.501C39.9844 363.915 39.6486 364.251 39.2344 364.251C38.8202 364.251 38.4844 363.915 38.4844 363.501V361.854C38.4844 361.439 38.8202 361.104 39.2344 361.104Z" fill="#131F60"/>
<path d="M60.232 371V359.08H64.568C65.368 359.08 66.072 359.229 66.68 359.528C67.288 359.816 67.7627 360.243 68.104 360.808C68.456 361.363 68.632 362.029 68.632 362.808C68.632 363.629 68.424 364.333 68.008 364.92C67.6027 365.507 67.0533 365.933 66.36 366.2L69.112 371H66.968L64.04 365.8L65.272 366.52H62.12V371H60.232ZM62.12 364.84H64.6C65.0373 364.84 65.416 364.755 65.736 364.584C66.056 364.413 66.3013 364.179 66.472 363.88C66.6533 363.571 66.744 363.208 66.744 362.792C66.744 362.376 66.6533 362.019 66.472 361.72C66.3013 361.411 66.056 361.176 65.736 361.016C65.416 360.845 65.0373 360.76 64.6 360.76H62.12V364.84ZM74.2644 371.192C73.4004 371.192 72.6324 370.995 71.9604 370.6C71.299 370.195 70.7817 369.651 70.4084 368.968C70.035 368.275 69.8484 367.501 69.8484 366.648C69.8484 365.773 70.035 365 70.4084 364.328C70.7924 363.656 71.3044 363.128 71.9444 362.744C72.5844 362.349 73.3097 362.152 74.1204 362.152C74.771 362.152 75.3524 362.264 75.8644 362.488C76.3764 362.712 76.8084 363.021 77.1604 363.416C77.5124 363.8 77.779 364.243 77.9604 364.744C78.1524 365.245 78.2484 365.779 78.2484 366.344C78.2484 366.483 78.243 366.627 78.2324 366.776C78.2217 366.925 78.2004 367.064 78.1684 367.192H71.2724V365.752H77.1444L76.2804 366.408C76.387 365.885 76.3497 365.421 76.1684 365.016C75.9977 364.6 75.731 364.275 75.3684 364.04C75.0164 363.795 74.6004 363.672 74.1204 363.672C73.6404 363.672 73.2137 363.795 72.8404 364.04C72.467 364.275 72.179 364.616 71.9764 365.064C71.7737 365.501 71.6937 366.035 71.7364 366.664C71.683 367.251 71.763 367.763 71.9764 368.2C72.2004 368.637 72.5097 368.979 72.9044 369.224C73.3097 369.469 73.7684 369.592 74.2804 369.592C74.803 369.592 75.2457 369.475 75.6084 369.24C75.9817 369.005 76.275 368.701 76.4884 368.328L77.9604 369.048C77.7897 369.453 77.523 369.821 77.1604 370.152C76.8084 370.472 76.3817 370.728 75.8804 370.92C75.3897 371.101 74.851 371.192 74.2644 371.192ZM81.1489 371V363.976H79.5489V362.344H81.1489V361.896C81.1489 361.245 81.2822 360.701 81.5489 360.264C81.8155 359.816 82.1835 359.475 82.6529 359.24C83.1329 359.005 83.6822 358.888 84.3009 358.888C84.4182 358.888 84.5515 358.899 84.7009 358.92C84.8502 358.931 84.9729 358.947 85.0689 358.968V360.536C84.9835 360.515 84.8875 360.504 84.7809 360.504C84.6742 360.493 84.5889 360.488 84.5249 360.488C84.0449 360.488 83.6609 360.6 83.3729 360.824C83.0849 361.037 82.9409 361.395 82.9409 361.896V362.344H84.9249V363.976H82.9409V371H81.1489ZM90.5062 371.192C89.6422 371.192 88.8742 370.995 88.2022 370.6C87.5409 370.195 87.0236 369.651 86.6502 368.968C86.2769 368.275 86.0902 367.501 86.0902 366.648C86.0902 365.773 86.2769 365 86.6502 364.328C87.0342 363.656 87.5462 363.128 88.1862 362.744C88.8262 362.349 89.5516 362.152 90.3622 362.152C91.0129 362.152 91.5942 362.264 92.1062 362.488C92.6182 362.712 93.0503 363.021 93.4023 363.416C93.7543 363.8 94.0209 364.243 94.2022 364.744C94.3942 365.245 94.4902 365.779 94.4902 366.344C94.4902 366.483 94.4849 366.627 94.4742 366.776C94.4636 366.925 94.4422 367.064 94.4102 367.192H87.5142V365.752H93.3862L92.5222 366.408C92.6289 365.885 92.5916 365.421 92.4102 365.016C92.2396 364.6 91.9729 364.275 91.6102 364.04C91.2582 363.795 90.8422 363.672 90.3622 363.672C89.8822 363.672 89.4556 363.795 89.0822 364.04C88.7089 364.275 88.4209 364.616 88.2182 365.064C88.0156 365.501 87.9356 366.035 87.9782 366.664C87.9249 367.251 88.0049 367.763 88.2182 368.2C88.4422 368.637 88.7516 368.979 89.1462 369.224C89.5516 369.469 90.0102 369.592 90.5222 369.592C91.0449 369.592 91.4876 369.475 91.8502 369.24C92.2236 369.005 92.5169 368.701 92.7302 368.328L94.2022 369.048C94.0316 369.453 93.7649 369.821 93.4023 370.152C93.0503 370.472 92.6236 370.728 92.1223 370.92C91.6316 371.101 91.0929 371.192 90.5062 371.192ZM96.4147 371V362.344H98.1427V364.088L97.9827 363.832C98.1747 363.267 98.4841 362.861 98.9107 362.616C99.3374 362.36 99.8494 362.232 100.447 362.232H100.975V363.88H100.223C99.6254 363.88 99.1401 364.067 98.7667 364.44C98.4041 364.803 98.2227 365.325 98.2227 366.008V371H96.4147ZM102.372 371V362.344H104.1V364.088L103.94 363.832C104.132 363.267 104.441 362.861 104.868 362.616C105.294 362.36 105.806 362.232 106.404 362.232H106.932V363.88H106.18C105.582 363.88 105.097 364.067 104.724 364.44C104.361 364.803 104.18 365.325 104.18 366.008V371H102.372ZM110.92 371.192C110.334 371.192 109.816 371.091 109.368 370.888C108.931 370.675 108.59 370.387 108.344 370.024C108.099 369.651 107.976 369.213 107.976 368.712C107.976 368.243 108.078 367.821 108.28 367.448C108.494 367.075 108.819 366.76 109.256 366.504C109.694 366.248 110.243 366.067 110.904 365.96L113.912 365.464V366.888L111.256 367.352C110.776 367.437 110.424 367.592 110.2 367.816C109.976 368.029 109.864 368.307 109.864 368.648C109.864 368.979 109.987 369.251 110.232 369.464C110.488 369.667 110.814 369.768 111.208 369.768C111.699 369.768 112.126 369.661 112.488 369.448C112.862 369.235 113.15 368.952 113.352 368.6C113.555 368.237 113.656 367.837 113.656 367.4V365.176C113.656 364.749 113.496 364.403 113.176 364.136C112.867 363.859 112.451 363.72 111.928 363.72C111.448 363.72 111.027 363.848 110.664 364.104C110.312 364.349 110.051 364.669 109.88 365.064L108.376 364.312C108.536 363.885 108.798 363.512 109.16 363.192C109.523 362.861 109.944 362.605 110.424 362.424C110.915 362.243 111.432 362.152 111.976 362.152C112.659 362.152 113.262 362.28 113.784 362.536C114.318 362.792 114.728 363.149 115.016 363.608C115.315 364.056 115.464 364.579 115.464 365.176V371H113.736V369.432L114.104 369.48C113.902 369.832 113.64 370.136 113.32 370.392C113.011 370.648 112.654 370.845 112.248 370.984C111.854 371.123 111.411 371.192 110.92 371.192ZM117.738 371V358.888H119.546V371H117.738ZM125.02 371.192C124.135 371.192 123.356 370.973 122.684 370.536C122.023 370.099 121.559 369.512 121.292 368.776L122.684 368.12C122.919 368.611 123.239 369 123.644 369.288C124.06 369.576 124.519 369.72 125.02 369.72C125.447 369.72 125.794 369.624 126.06 369.432C126.327 369.24 126.46 368.979 126.46 368.648C126.46 368.435 126.402 368.264 126.284 368.136C126.167 367.997 126.018 367.885 125.836 367.8C125.666 367.715 125.49 367.651 125.308 367.608L123.948 367.224C123.202 367.011 122.642 366.691 122.268 366.264C121.906 365.827 121.724 365.32 121.724 364.744C121.724 364.221 121.858 363.768 122.124 363.384C122.391 362.989 122.759 362.685 123.228 362.472C123.698 362.259 124.226 362.152 124.812 362.152C125.602 362.152 126.306 362.349 126.924 362.744C127.543 363.128 127.98 363.667 128.236 364.36L126.844 365.016C126.674 364.6 126.402 364.269 126.028 364.024C125.666 363.779 125.255 363.656 124.796 363.656C124.402 363.656 124.087 363.752 123.852 363.944C123.618 364.125 123.5 364.365 123.5 364.664C123.5 364.867 123.554 365.037 123.66 365.176C123.767 365.304 123.906 365.411 124.076 365.496C124.247 365.571 124.423 365.635 124.604 365.688L126.012 366.104C126.727 366.307 127.276 366.627 127.66 367.064C128.044 367.491 128.236 368.003 128.236 368.6C128.236 369.112 128.098 369.565 127.82 369.96C127.554 370.344 127.18 370.648 126.7 370.872C126.22 371.085 125.66 371.192 125.02 371.192Z" fill="#131F60"/>
<path fill-rule="evenodd" clip-rule="evenodd" d="M37 418.144L35.7394 416.19C34.8437 414.801 33.2396 414.258 31.8919 414.562C30.6681 414.837 29.5 415.854 29.5 418.094C29.5 420.138 31.0378 423.423 36.7894 427.107C36.9168 427.188 37.0832 427.188 37.2106 427.107C42.9622 423.423 44.5 420.138 44.5 418.094C44.5 415.874 43.3351 414.853 42.1052 414.573C40.7551 414.267 39.154 414.805 38.2606 416.19L37 418.144ZM35.9813 414.213C33.0752 411.748 28 412.949 28 418.094C28 420.897 30.0604 424.579 35.9805 428.37C36.601 428.767 37.399 428.767 38.0195 428.37C43.9396 424.579 46 420.897 46 418.094C46 412.978 40.9254 411.755 38.0193 414.214C37.6363 414.538 37.2911 414.925 37 415.377C36.7091 414.926 36.364 414.538 35.9813 414.213Z" fill="#131F60"/>
<path d="M59.176 427L63.368 415.08H65.704L69.896 427H67.88L66.968 424.328H62.12L61.192 427H59.176ZM62.664 422.648H66.392L64.28 416.408H64.808L62.664 422.648ZM74.2259 427.192C73.5752 427.192 73.0045 427.048 72.5139 426.76C72.0232 426.461 71.6392 426.051 71.3619 425.528C71.0952 424.995 70.9619 424.381 70.9619 423.688V418.344H72.7699V423.528C72.7699 423.923 72.8499 424.269 73.0099 424.568C73.1699 424.867 73.3939 425.101 73.6819 425.272C73.9699 425.432 74.3005 425.512 74.6739 425.512C75.0579 425.512 75.3939 425.427 75.6819 425.256C75.9699 425.085 76.1939 424.845 76.3539 424.536C76.5245 424.227 76.6099 423.864 76.6099 423.448V418.344H78.4019V427H76.6899V425.304L76.8819 425.528C76.6792 426.061 76.3432 426.472 75.8739 426.76C75.4045 427.048 74.8552 427.192 74.2259 427.192ZM84.6729 427.192C83.8409 427.192 83.0942 426.995 82.4329 426.6C81.7822 426.195 81.2649 425.651 80.8809 424.968C80.5075 424.285 80.3209 423.517 80.3209 422.664C80.3209 421.811 80.5129 421.043 80.8969 420.36C81.2809 419.677 81.7982 419.139 82.4489 418.744C83.0995 418.349 83.8355 418.152 84.6569 418.152C85.3502 418.152 85.9635 418.291 86.4969 418.568C87.0302 418.845 87.4515 419.229 87.7609 419.72L87.4889 420.136V414.888H89.2809V427H87.5689V425.24L87.7769 425.576C87.4782 426.099 87.0515 426.499 86.4969 426.776C85.9422 427.053 85.3342 427.192 84.6729 427.192ZM84.8489 425.512C85.3502 425.512 85.7982 425.389 86.1929 425.144C86.5982 424.899 86.9129 424.563 87.1369 424.136C87.3715 423.699 87.4889 423.208 87.4889 422.664C87.4889 422.12 87.3715 421.635 87.1369 421.208C86.9129 420.781 86.5982 420.445 86.1929 420.2C85.7982 419.955 85.3502 419.832 84.8489 419.832C84.3475 419.832 83.8942 419.955 83.4889 420.2C83.0835 420.445 82.7689 420.781 82.5449 421.208C82.3209 421.635 82.2089 422.12 82.2089 422.664C82.2089 423.208 82.3209 423.699 82.5449 424.136C82.7689 424.563 83.0782 424.899 83.4729 425.144C83.8782 425.389 84.3369 425.512 84.8489 425.512ZM91.5516 427V418.344H93.3596V427H91.5516ZM91.5516 417.16V415.08H93.3596V417.16H91.5516ZM99.6975 427.192C98.8335 427.192 98.0655 426.995 97.3935 426.6C96.7322 426.195 96.2148 425.651 95.8415 424.968C95.4682 424.275 95.2815 423.501 95.2815 422.648C95.2815 421.773 95.4682 421 95.8415 420.328C96.2255 419.656 96.7375 419.128 97.3775 418.744C98.0175 418.349 98.7428 418.152 99.5535 418.152C100.204 418.152 100.785 418.264 101.297 418.488C101.809 418.712 102.241 419.021 102.594 419.416C102.946 419.8 103.212 420.243 103.393 420.744C103.585 421.245 103.681 421.779 103.681 422.344C103.681 422.483 103.676 422.627 103.665 422.776C103.655 422.925 103.633 423.064 103.601 423.192H96.7055V421.752H102.577L101.713 422.408C101.82 421.885 101.783 421.421 101.601 421.016C101.431 420.6 101.164 420.275 100.801 420.04C100.449 419.795 100.033 419.672 99.5535 419.672C99.0735 419.672 98.6468 419.795 98.2735 420.04C97.9002 420.275 97.6122 420.616 97.4095 421.064C97.2068 421.501 97.1268 422.035 97.1695 422.664C97.1162 423.251 97.1962 423.763 97.4095 424.2C97.6335 424.637 97.9428 424.979 98.3375 425.224C98.7428 425.469 99.2015 425.592 99.7135 425.592C100.236 425.592 100.679 425.475 101.041 425.24C101.415 425.005 101.708 424.701 101.921 424.328L103.393 425.048C103.223 425.453 102.956 425.821 102.594 426.152C102.241 426.472 101.815 426.728 101.313 426.92C100.823 427.101 100.284 427.192 99.6975 427.192ZM105.606 427V418.344H107.334V420.04L107.126 419.816C107.339 419.272 107.681 418.861 108.15 418.584C108.619 418.296 109.163 418.152 109.782 418.152C110.422 418.152 110.987 418.291 111.478 418.568C111.969 418.845 112.353 419.229 112.63 419.72C112.907 420.211 113.046 420.776 113.046 421.416V427H111.254V421.896C111.254 421.459 111.174 421.091 111.014 420.792C110.854 420.483 110.625 420.248 110.326 420.088C110.038 419.917 109.707 419.832 109.334 419.832C108.961 419.832 108.625 419.917 108.326 420.088C108.038 420.248 107.814 420.483 107.654 420.792C107.494 421.101 107.414 421.469 107.414 421.896V427H105.606ZM119.253 427.192C118.389 427.192 117.621 426.995 116.949 426.6C116.288 426.195 115.76 425.651 115.365 424.968C114.981 424.285 114.789 423.512 114.789 422.648C114.789 421.795 114.981 421.027 115.365 420.344C115.749 419.661 116.277 419.128 116.949 418.744C117.621 418.349 118.389 418.152 119.253 418.152C119.84 418.152 120.389 418.259 120.901 418.472C121.413 418.675 121.856 418.957 122.229 419.32C122.613 419.683 122.896 420.104 123.077 420.584L121.493 421.32C121.312 420.872 121.018 420.515 120.613 420.248C120.218 419.971 119.765 419.832 119.253 419.832C118.762 419.832 118.32 419.955 117.925 420.2C117.541 420.435 117.237 420.771 117.013 421.208C116.789 421.635 116.677 422.12 116.677 422.664C116.677 423.208 116.789 423.699 117.013 424.136C117.237 424.563 117.541 424.899 117.925 425.144C118.32 425.389 118.762 425.512 119.253 425.512C119.776 425.512 120.229 425.379 120.613 425.112C121.008 424.835 121.301 424.467 121.493 424.008L123.077 424.76C122.906 425.219 122.629 425.635 122.245 426.008C121.872 426.371 121.429 426.659 120.917 426.872C120.405 427.085 119.85 427.192 119.253 427.192ZM129.068 427.192C128.204 427.192 127.436 426.995 126.764 426.6C126.103 426.195 125.585 425.651 125.212 424.968C124.839 424.275 124.652 423.501 124.652 422.648C124.652 421.773 124.839 421 125.212 420.328C125.596 419.656 126.108 419.128 126.748 418.744C127.388 418.349 128.113 418.152 128.924 418.152C129.575 418.152 130.156 418.264 130.668 418.488C131.18 418.712 131.612 419.021 131.964 419.416C132.316 419.8 132.583 420.243 132.764 420.744C132.956 421.245 133.052 421.779 133.052 422.344C133.052 422.483 133.047 422.627 133.036 422.776C133.025 422.925 133.004 423.064 132.972 423.192H126.076V421.752H131.948L131.084 422.408C131.191 421.885 131.153 421.421 130.972 421.016C130.801 420.6 130.535 420.275 130.172 420.04C129.82 419.795 129.404 419.672 128.924 419.672C128.444 419.672 128.017 419.795 127.644 420.04C127.271 420.275 126.983 420.616 126.78 421.064C126.577 421.501 126.497 422.035 126.54 422.664C126.487 423.251 126.567 423.763 126.78 424.2C127.004 424.637 127.313 424.979 127.708 425.224C128.113 425.469 128.572 425.592 129.084 425.592C129.607 425.592 130.049 425.475 130.412 425.24C130.785 425.005 131.079 424.701 131.292 424.328L132.764 425.048C132.593 425.453 132.327 425.821 131.964 426.152C131.612 426.472 131.185 426.728 130.684 426.92C130.193 427.101 129.655 427.192 129.068 427.192Z" fill="#131F60"/>
<path fill-rule="evenodd" clip-rule="evenodd" d="M31 474.451C31.5523 474.451 32 474.899 32 475.451V482.5C32 483.052 31.5523 483.5 31 483.5C30.4477 483.5 30 483.052 30 482.5V475.451C30 474.899 30.4477 474.451 31 474.451Z" fill="#131F60"/>
<path fill-rule="evenodd" clip-rule="evenodd" d="M37 469.5C37.5523 469.5 38 469.948 38 470.5L38 482.499C38 483.052 37.5523 483.499 37 483.499C36.4477 483.499 36 483.052 36 482.499L36 470.5C36 469.948 36.4477 469.5 37 469.5Z" fill="#131F60"/>
<path fill-rule="evenodd" clip-rule="evenodd" d="M43 477.473C43.5523 477.473 44 477.92 44 478.473L44 482.5C44 483.053 43.5523 483.5 43 483.5C42.4477 483.5 42 483.053 42 482.5L42 478.473C42 477.92 42.4477 477.473 43 477.473Z" fill="#131F60"/>
<path d="M59.176 483L63.368 471.08H65.704L69.896 483H67.88L66.968 480.328H62.12L61.192 483H59.176ZM62.664 478.648H66.392L64.28 472.408H64.808L62.664 478.648ZM71.2941 483V474.344H73.0221V476.04L72.8141 475.816C73.0275 475.272 73.3688 474.861 73.8381 474.584C74.3075 474.296 74.8515 474.152 75.4701 474.152C76.1101 474.152 76.6755 474.291 77.1661 474.568C77.6568 474.845 78.0408 475.229 78.3181 475.72C78.5955 476.211 78.7341 476.776 78.7341 477.416V483H76.9421V477.896C76.9421 477.459 76.8621 477.091 76.7021 476.792C76.5421 476.483 76.3128 476.248 76.0141 476.088C75.7261 475.917 75.3955 475.832 75.0221 475.832C74.6488 475.832 74.3128 475.917 74.0141 476.088C73.7261 476.248 73.5021 476.483 73.3421 476.792C73.1821 477.101 73.1021 477.469 73.1021 477.896V483H71.2941ZM83.4211 483.192C82.8345 483.192 82.3171 483.091 81.8691 482.888C81.4318 482.675 81.0905 482.387 80.8451 482.024C80.5998 481.651 80.4771 481.213 80.4771 480.712C80.4771 480.243 80.5785 479.821 80.7811 479.448C80.9945 479.075 81.3198 478.76 81.7571 478.504C82.1945 478.248 82.7438 478.067 83.4051 477.96L86.4131 477.464V478.888L83.7571 479.352C83.2771 479.437 82.9251 479.592 82.7011 479.816C82.4771 480.029 82.3651 480.307 82.3651 480.648C82.3651 480.979 82.4878 481.251 82.7331 481.464C82.9891 481.667 83.3145 481.768 83.7091 481.768C84.1998 481.768 84.6265 481.661 84.9891 481.448C85.3625 481.235 85.6505 480.952 85.8531 480.6C86.0558 480.237 86.1571 479.837 86.1571 479.4V477.176C86.1571 476.749 85.9971 476.403 85.6771 476.136C85.3678 475.859 84.9518 475.72 84.4291 475.72C83.9491 475.72 83.5278 475.848 83.1651 476.104C82.8131 476.349 82.5518 476.669 82.3811 477.064L80.8771 476.312C81.0371 475.885 81.2985 475.512 81.6611 475.192C82.0238 474.861 82.4451 474.605 82.9251 474.424C83.4158 474.243 83.9331 474.152 84.4771 474.152C85.1598 474.152 85.7625 474.28 86.2851 474.536C86.8185 474.792 87.2291 475.149 87.5171 475.608C87.8158 476.056 87.9651 476.579 87.9651 477.176V483H86.2371V481.432L86.6051 481.48C86.4025 481.832 86.1411 482.136 85.8211 482.392C85.5118 482.648 85.1545 482.845 84.7491 482.984C84.3545 483.123 83.9118 483.192 83.4211 483.192ZM90.2391 483V470.888H92.0471V483H90.2391ZM95.089 486.536C94.8757 486.536 94.6623 486.515 94.449 486.472C94.2463 486.44 94.0597 486.387 93.889 486.312V484.76C94.017 484.792 94.1717 484.819 94.353 484.84C94.5343 484.872 94.7103 484.888 94.881 484.888C95.3823 484.888 95.7503 484.776 95.985 484.552C96.2303 484.339 96.449 484.003 96.641 483.544L97.217 482.232L97.185 483.752L93.441 474.344H95.377L98.145 481.56H97.489L100.241 474.344H102.193L98.369 483.944C98.1663 484.456 97.9103 484.904 97.601 485.288C97.3023 485.683 96.945 485.987 96.529 486.2C96.1237 486.424 95.6437 486.536 95.089 486.536ZM107.334 483.096C106.428 483.096 105.724 482.84 105.222 482.328C104.721 481.816 104.47 481.096 104.47 480.168V475.976H102.95V474.344H103.19C103.596 474.344 103.91 474.227 104.134 473.992C104.358 473.757 104.47 473.437 104.47 473.032V472.36H106.278V474.344H108.246V475.976H106.278V480.088C106.278 480.387 106.326 480.643 106.422 480.856C106.518 481.059 106.673 481.219 106.886 481.336C107.1 481.443 107.377 481.496 107.718 481.496C107.804 481.496 107.9 481.491 108.006 481.48C108.113 481.469 108.214 481.459 108.31 481.448V483C108.161 483.021 107.996 483.043 107.814 483.064C107.633 483.085 107.473 483.096 107.334 483.096ZM110.235 483V474.344H112.043V483H110.235ZM110.235 473.16V471.08H112.043V473.16H110.235ZM118.429 483.192C117.565 483.192 116.797 482.995 116.125 482.6C115.463 482.195 114.935 481.651 114.541 480.968C114.157 480.285 113.965 479.512 113.965 478.648C113.965 477.795 114.157 477.027 114.541 476.344C114.925 475.661 115.453 475.128 116.125 474.744C116.797 474.349 117.565 474.152 118.429 474.152C119.015 474.152 119.565 474.259 120.077 474.472C120.589 474.675 121.031 474.957 121.405 475.32C121.789 475.683 122.071 476.104 122.253 476.584L120.669 477.32C120.487 476.872 120.194 476.515 119.789 476.248C119.394 475.971 118.941 475.832 118.429 475.832C117.938 475.832 117.495 475.955 117.101 476.2C116.717 476.435 116.413 476.771 116.189 477.208C115.965 477.635 115.853 478.12 115.853 478.664C115.853 479.208 115.965 479.699 116.189 480.136C116.413 480.563 116.717 480.899 117.101 481.144C117.495 481.389 117.938 481.512 118.429 481.512C118.951 481.512 119.405 481.379 119.789 481.112C120.183 480.835 120.477 480.467 120.669 480.008L122.253 480.76C122.082 481.219 121.805 481.635 121.421 482.008C121.047 482.371 120.605 482.659 120.093 482.872C119.581 483.085 119.026 483.192 118.429 483.192ZM127.38 483.192C126.494 483.192 125.716 482.973 125.044 482.536C124.382 482.099 123.918 481.512 123.652 480.776L125.044 480.12C125.278 480.611 125.598 481 126.004 481.288C126.42 481.576 126.878 481.72 127.38 481.72C127.806 481.72 128.153 481.624 128.42 481.432C128.686 481.24 128.82 480.979 128.82 480.648C128.82 480.435 128.761 480.264 128.644 480.136C128.526 479.997 128.377 479.885 128.196 479.8C128.025 479.715 127.849 479.651 127.668 479.608L126.308 479.224C125.561 479.011 125.001 478.691 124.628 478.264C124.265 477.827 124.084 477.32 124.084 476.744C124.084 476.221 124.217 475.768 124.484 475.384C124.75 474.989 125.118 474.685 125.588 474.472C126.057 474.259 126.585 474.152 127.172 474.152C127.961 474.152 128.665 474.349 129.284 474.744C129.902 475.128 130.34 475.667 130.596 476.36L129.204 477.016C129.033 476.6 128.761 476.269 128.388 476.024C128.025 475.779 127.614 475.656 127.156 475.656C126.761 475.656 126.446 475.752 126.212 475.944C125.977 476.125 125.86 476.365 125.86 476.664C125.86 476.867 125.913 477.037 126.02 477.176C126.126 477.304 126.265 477.411 126.436 477.496C126.606 477.571 126.782 477.635 126.964 477.688L128.372 478.104C129.086 478.307 129.636 478.627 130.02 479.064C130.404 479.491 130.596 480.003 130.596 480.6C130.596 481.112 130.457 481.565 130.18 481.96C129.913 482.344 129.54 482.648 129.06 482.872C128.58 483.085 128.02 483.192 127.38 483.192Z" fill="#131F60"/>
<path fill-rule="evenodd" clip-rule="evenodd" d="M37 540C41.1421 540 44.5 536.642 44.5 532.5C44.5 528.358 41.1421 525 37 525C32.8579 525 29.5 528.358 29.5 532.5C29.5 536.642 32.8579 540 37 540ZM37 541.5C41.9706 541.5 46 537.471 46 532.5C46 527.529 41.9706 523.5 37 523.5C32.0294 523.5 28 527.529 28 532.5C28 537.471 32.0294 541.5 37 541.5Z" fill="#131F60"/>
<path fill-rule="evenodd" clip-rule="evenodd" d="M37 528.75C37.4142 528.75 37.75 529.086 37.75 529.5V535.5C37.75 535.914 37.4142 536.25 37 536.25C36.5858 536.25 36.25 535.914 36.25 535.5V529.5C36.25 529.086 36.5858 528.75 37 528.75Z" fill="#131F60"/>
<path fill-rule="evenodd" clip-rule="evenodd" d="M33.25 532.5C33.25 532.086 33.5858 531.75 34 531.75H40C40.4142 531.75 40.75 532.086 40.75 532.5C40.75 532.914 40.4142 533.25 40 533.25H34C33.5858 533.25 33.25 532.914 33.25 532.5Z" fill="#131F60"/>
<path d="M60.232 539V527.08H62.12V539H60.232ZM64.5754 539V530.344H66.3034V532.04L66.0954 531.816C66.3087 531.272 66.65 530.861 67.1194 530.584C67.5887 530.296 68.1327 530.152 68.7514 530.152C69.3914 530.152 69.9567 530.291 70.4474 530.568C70.938 530.845 71.322 531.229 71.5994 531.72C71.8767 532.211 72.0154 532.776 72.0154 533.416V539H70.2234V533.896C70.2234 533.459 70.1434 533.091 69.9834 532.792C69.8234 532.483 69.594 532.248 69.2954 532.088C69.0074 531.917 68.6767 531.832 68.3034 531.832C67.93 531.832 67.594 531.917 67.2954 532.088C67.0074 532.248 66.7834 532.483 66.6234 532.792C66.4634 533.101 66.3834 533.469 66.3834 533.896V539H64.5754ZM77.8544 539.096C76.9477 539.096 76.2437 538.84 75.7424 538.328C75.241 537.816 74.9904 537.096 74.9904 536.168V531.976H73.4704V530.344H73.7104C74.1157 530.344 74.4304 530.227 74.6544 529.992C74.8784 529.757 74.9904 529.437 74.9904 529.032V528.36H76.7984V530.344H78.7664V531.976H76.7984V536.088C76.7984 536.387 76.8464 536.643 76.9424 536.856C77.0384 537.059 77.193 537.219 77.4064 537.336C77.6197 537.443 77.897 537.496 78.2384 537.496C78.3237 537.496 78.4197 537.491 78.5264 537.48C78.633 537.469 78.7344 537.459 78.8304 537.448V539C78.681 539.021 78.5157 539.043 78.3344 539.064C78.153 539.085 77.993 539.096 77.8544 539.096ZM84.6625 539.192C83.7985 539.192 83.0305 538.995 82.3585 538.6C81.6972 538.195 81.1798 537.651 80.8065 536.968C80.4332 536.275 80.2465 535.501 80.2465 534.648C80.2465 533.773 80.4332 533 80.8065 532.328C81.1905 531.656 81.7025 531.128 82.3425 530.744C82.9825 530.349 83.7078 530.152 84.5185 530.152C85.1692 530.152 85.7505 530.264 86.2625 530.488C86.7745 530.712 87.2065 531.021 87.5585 531.416C87.9105 531.8 88.1772 532.243 88.3585 532.744C88.5505 533.245 88.6465 533.779 88.6465 534.344C88.6465 534.483 88.6412 534.627 88.6305 534.776C88.6198 534.925 88.5985 535.064 88.5665 535.192H81.6705V533.752H87.5425L86.6785 534.408C86.7852 533.885 86.7478 533.421 86.5665 533.016C86.3958 532.6 86.1292 532.275 85.7665 532.04C85.4145 531.795 84.9985 531.672 84.5185 531.672C84.0385 531.672 83.6118 531.795 83.2385 532.04C82.8652 532.275 82.5772 532.616 82.3745 533.064C82.1718 533.501 82.0918 534.035 82.1345 534.664C82.0812 535.251 82.1612 535.763 82.3745 536.2C82.5985 536.637 82.9078 536.979 83.3025 537.224C83.7078 537.469 84.1665 537.592 84.6785 537.592C85.2012 537.592 85.6438 537.475 86.0065 537.24C86.3798 537.005 86.6732 536.701 86.8865 536.328L88.3585 537.048C88.1878 537.453 87.9212 537.821 87.5585 538.152C87.2065 538.472 86.7798 538.728 86.2785 538.92C85.7878 539.101 85.2492 539.192 84.6625 539.192ZM94.747 542.52C94.1177 542.52 93.5363 542.419 93.003 542.216C92.4697 542.013 92.011 541.731 91.627 541.368C91.243 541.016 90.955 540.6 90.763 540.12L92.427 539.432C92.5763 539.837 92.8483 540.173 93.243 540.44C93.6483 540.707 94.1443 540.84 94.731 540.84C95.1897 540.84 95.6003 540.749 95.963 540.568C96.3257 540.397 96.6137 540.141 96.827 539.8C97.0403 539.469 97.147 539.069 97.147 538.6V536.648L97.467 537.016C97.1683 537.571 96.7523 537.992 96.219 538.28C95.6963 538.568 95.1043 538.712 94.443 538.712C93.643 538.712 92.923 538.525 92.283 538.152C91.643 537.779 91.1363 537.267 90.763 536.616C90.4003 535.965 90.219 535.235 90.219 534.424C90.219 533.603 90.4003 532.872 90.763 532.232C91.1363 531.592 91.6377 531.085 92.267 530.712C92.8963 530.339 93.6163 530.152 94.427 530.152C95.0883 530.152 95.675 530.296 96.187 530.584C96.7097 530.861 97.1363 531.267 97.467 531.8L97.227 532.248V530.344H98.939V538.6C98.939 539.347 98.7577 540.013 98.395 540.6C98.043 541.197 97.5523 541.667 96.923 542.008C96.2937 542.349 95.5683 542.52 94.747 542.52ZM94.651 537.032C95.131 537.032 95.5577 536.92 95.931 536.696C96.3043 536.461 96.5977 536.152 96.811 535.768C97.035 535.373 97.147 534.931 97.147 534.44C97.147 533.949 97.035 533.507 96.811 533.112C96.587 532.717 96.2883 532.408 95.915 532.184C95.5417 531.949 95.1203 531.832 94.651 531.832C94.1603 531.832 93.723 531.949 93.339 532.184C92.955 532.408 92.651 532.717 92.427 533.112C92.2137 533.496 92.107 533.939 92.107 534.44C92.107 534.92 92.2137 535.357 92.427 535.752C92.651 536.147 92.955 536.461 93.339 536.696C93.723 536.92 94.1603 537.032 94.651 537.032ZM101.215 539V530.344H102.943V532.088L102.783 531.832C102.975 531.267 103.285 530.861 103.711 530.616C104.138 530.36 104.65 530.232 105.247 530.232H105.775V531.88H105.023C104.426 531.88 103.941 532.067 103.567 532.44C103.205 532.803 103.023 533.325 103.023 534.008V539H101.215ZM109.764 539.192C109.178 539.192 108.66 539.091 108.212 538.888C107.775 538.675 107.434 538.387 107.188 538.024C106.943 537.651 106.82 537.213 106.82 536.712C106.82 536.243 106.922 535.821 107.124 535.448C107.338 535.075 107.663 534.76 108.1 534.504C108.538 534.248 109.087 534.067 109.748 533.96L112.756 533.464V534.888L110.1 535.352C109.62 535.437 109.268 535.592 109.044 535.816C108.82 536.029 108.708 536.307 108.708 536.648C108.708 536.979 108.831 537.251 109.076 537.464C109.332 537.667 109.658 537.768 110.052 537.768C110.543 537.768 110.97 537.661 111.332 537.448C111.706 537.235 111.994 536.952 112.196 536.6C112.399 536.237 112.5 535.837 112.5 535.4V533.176C112.5 532.749 112.34 532.403 112.02 532.136C111.711 531.859 111.295 531.72 110.772 531.72C110.292 531.72 109.871 531.848 109.508 532.104C109.156 532.349 108.895 532.669 108.724 533.064L107.22 532.312C107.38 531.885 107.642 531.512 108.004 531.192C108.367 530.861 108.788 530.605 109.268 530.424C109.759 530.243 110.276 530.152 110.82 530.152C111.503 530.152 112.106 530.28 112.628 530.536C113.162 530.792 113.572 531.149 113.86 531.608C114.159 532.056 114.308 532.579 114.308 533.176V539H112.58V537.432L112.948 537.48C112.746 537.832 112.484 538.136 112.164 538.392C111.855 538.648 111.498 538.845 111.092 538.984C110.698 539.123 110.255 539.192 109.764 539.192ZM120.17 539.096C119.263 539.096 118.559 538.84 118.058 538.328C117.557 537.816 117.306 537.096 117.306 536.168V531.976H115.786V530.344H116.026C116.431 530.344 116.746 530.227 116.97 529.992C117.194 529.757 117.306 529.437 117.306 529.032V528.36H119.114V530.344H121.082V531.976H119.114V536.088C119.114 536.387 119.162 536.643 119.258 536.856C119.354 537.059 119.509 537.219 119.722 537.336C119.935 537.443 120.213 537.496 120.554 537.496C120.639 537.496 120.735 537.491 120.842 537.48C120.949 537.469 121.05 537.459 121.146 537.448V539C120.997 539.021 120.831 539.043 120.65 539.064C120.469 539.085 120.309 539.096 120.17 539.096ZM123.07 539V530.344H124.878V539H123.07ZM123.07 529.16V527.08H124.878V529.16H123.07ZM131.328 539.192C130.496 539.192 129.734 538.995 129.04 538.6C128.358 538.205 127.814 537.667 127.408 536.984C127.003 536.301 126.8 535.528 126.8 534.664C126.8 533.789 127.003 533.016 127.408 532.344C127.814 531.661 128.358 531.128 129.04 530.744C129.723 530.349 130.486 530.152 131.328 530.152C132.182 530.152 132.944 530.349 133.616 530.744C134.299 531.128 134.838 531.661 135.232 532.344C135.638 533.016 135.84 533.789 135.84 534.664C135.84 535.539 135.638 536.317 135.232 537C134.827 537.683 134.283 538.221 133.6 538.616C132.918 539 132.16 539.192 131.328 539.192ZM131.328 537.512C131.84 537.512 132.294 537.389 132.688 537.144C133.083 536.899 133.392 536.563 133.616 536.136C133.851 535.699 133.968 535.208 133.968 534.664C133.968 534.12 133.851 533.635 133.616 533.208C133.392 532.781 133.083 532.445 132.688 532.2C132.294 531.955 131.84 531.832 131.328 531.832C130.827 531.832 130.374 531.955 129.968 532.2C129.574 532.445 129.259 532.781 129.024 533.208C128.8 533.635 128.688 534.12 128.688 534.664C128.688 535.208 128.8 535.699 129.024 536.136C129.259 536.563 129.574 536.899 129.968 537.144C130.374 537.389 130.827 537.512 131.328 537.512ZM137.765 539V530.344H139.493V532.04L139.285 531.816C139.499 531.272 139.84 530.861 140.309 530.584C140.779 530.296 141.323 530.152 141.941 530.152C142.581 530.152 143.147 530.291 143.637 530.568C144.128 530.845 144.512 531.229 144.789 531.72C145.067 532.211 145.205 532.776 145.205 533.416V539H143.413V533.896C143.413 533.459 143.333 533.091 143.173 532.792C143.013 532.483 142.784 532.248 142.485 532.088C142.197 531.917 141.867 531.832 141.493 531.832C141.12 531.832 140.784 531.917 140.485 532.088C140.197 532.248 139.973 532.483 139.813 532.792C139.653 533.101 139.573 533.469 139.573 533.896V539H137.765ZM150.5 539.192C149.615 539.192 148.836 538.973 148.164 538.536C147.503 538.099 147.039 537.512 146.772 536.776L148.164 536.12C148.399 536.611 148.719 537 149.124 537.288C149.54 537.576 149.999 537.72 150.5 537.72C150.927 537.72 151.274 537.624 151.54 537.432C151.807 537.24 151.94 536.979 151.94 536.648C151.94 536.435 151.882 536.264 151.764 536.136C151.647 535.997 151.498 535.885 151.316 535.8C151.146 535.715 150.97 535.651 150.788 535.608L149.428 535.224C148.682 535.011 148.122 534.691 147.748 534.264C147.386 533.827 147.204 533.32 147.204 532.744C147.204 532.221 147.338 531.768 147.604 531.384C147.871 530.989 148.239 530.685 148.708 530.472C149.178 530.259 149.706 530.152 150.292 530.152C151.082 530.152 151.786 530.349 152.404 530.744C153.023 531.128 153.46 531.667 153.716 532.36L152.324 533.016C152.154 532.6 151.882 532.269 151.508 532.024C151.146 531.779 150.735 531.656 150.276 531.656C149.882 531.656 149.567 531.752 149.332 531.944C149.098 532.125 148.98 532.365 148.98 532.664C148.98 532.867 149.034 533.037 149.14 533.176C149.247 533.304 149.386 533.411 149.556 533.496C149.727 533.571 149.903 533.635 150.084 533.688L151.492 534.104C152.207 534.307 152.756 534.627 153.14 535.064C153.524 535.491 153.716 536.003 153.716 536.6C153.716 537.112 153.578 537.565 153.3 537.96C153.034 538.344 152.66 538.648 152.18 538.872C151.7 539.085 151.14 539.192 150.5 539.192Z" fill="#131F60"/>
<defs>
<linearGradient id="paint0_linear_1680_59542" x1="31.3454" y1="10.3262" x2="42.0039" y2="34.1816" gradientUnits="userSpaceOnUse">
<stop stop-color="#6D55FF"/>
<stop offset="1" stop-color="#3E68FF"/>
</linearGradient>
</defs>
</svg>
