<svg width="200" height="147" viewBox="0 0 200 147" fill="none" xmlns="http://www.w3.org/2000/svg">
<path d="M0 15H174.5C188.583 15 200 26.4167 200 40.5V40.5C200 54.5833 188.583 66 174.5 66H0V15Z" fill="#6355FF"/>
<circle cx="37" cy="39.5" r="12" fill="#5200FF"/>
<circle cx="36.9801" cy="39.7164" r="5.74959" fill="white"/>
<ellipse cx="29.7946" cy="39.2392" rx="0.798555" ry="1.75682" fill="white"/>
<ellipse cx="43.8504" cy="41.5168" rx="0.798555" ry="1.75682" transform="rotate(14.9842 43.8504 41.5168)" fill="white"/>
<path d="M30.3579 31.5375C30.1083 31.2344 29.9961 30.8501 30.0419 30.4558C30.0895 30.0448 30.3033 29.6871 30.6091 29.4426L30.4282 29.1559C30.3341 29.0067 30.3826 28.8071 30.5364 28.71C30.6903 28.6129 30.8914 28.6552 30.9855 28.8044L31.202 29.1475C31.3629 29.107 31.5326 29.0919 31.7057 29.1067L32.4114 29.1672C32.5907 29.1826 32.7191 29.3386 32.6986 29.516C32.678 29.6934 32.5161 29.8246 32.337 29.8093L31.6312 29.7488C31.1661 29.709 30.7442 30.051 30.6908 30.5113C30.6649 30.7343 30.7284 30.9514 30.8694 31.1227C31.0105 31.294 31.2122 31.3991 31.4375 31.4184L32.4433 31.5046C32.6225 31.52 32.751 31.6762 32.7306 31.8535C32.7186 31.9564 32.6591 32.0436 32.5763 32.0958C32.5164 32.1337 32.4442 32.1531 32.3689 32.1467L31.3631 32.0604C30.9643 32.0263 30.6074 31.8406 30.3579 31.5375Z" fill="white"/>
<path d="M33.0702 30.4503L32.0836 30.352C31.9078 30.3345 31.7509 30.4626 31.7331 30.6382C31.7152 30.8139 31.8431 30.9704 32.0189 30.988L33.0053 31.0863C33.2263 31.1083 33.4254 31.215 33.5658 31.3868C33.7061 31.5585 33.771 31.7747 33.7486 31.9955C33.7216 32.2601 33.5727 32.4835 33.3632 32.6155C33.2117 32.7111 33.0285 32.7589 32.837 32.7399L32.1448 32.6709C31.969 32.6534 31.812 32.7815 31.7941 32.9572C31.7762 33.1328 31.9042 33.2893 32.08 33.3069L32.7721 33.3759C32.9418 33.3929 33.1079 33.38 33.2651 33.3418L33.4816 33.6851C33.5757 33.8343 33.7732 33.8787 33.9227 33.7844C34.0723 33.6901 34.1172 33.4927 34.0231 33.3435L33.8422 33.0568C34.1388 32.8183 34.3436 32.4662 34.3851 32.0592C34.4673 31.2526 33.8775 30.5309 33.0704 30.4505L33.0702 30.4503Z" fill="white"/>
<ellipse cx="35.7053" cy="38.708" rx="0.851792" ry="1.75682" fill="#5200FF"/>
<ellipse cx="39.1116" cy="38.708" rx="0.851792" ry="1.75682" fill="#5200FF"/>
<path fill-rule="evenodd" clip-rule="evenodd" d="M35.0938 41.9551C35.0937 41.9552 35.0937 41.9554 35.0936 41.9555C34.903 42.5736 35.3863 43.2714 36.173 43.514C36.9597 43.7565 37.7519 43.4521 37.9425 42.8339C37.9426 42.8338 37.9426 42.8336 37.9427 42.8335L35.0938 41.9551Z" fill="#5200FF"/>
<path d="M59.176 46L63.368 34.08H65.704L69.896 46H67.88L66.968 43.328H62.12L61.192 46H59.176ZM62.664 41.648H66.392L64.28 35.408H64.808L62.664 41.648ZM74.4941 46.192C73.6088 46.192 72.8301 45.9733 72.1581 45.536C71.4968 45.0987 71.0328 44.512 70.7661 43.776L72.1581 43.12C72.3928 43.6107 72.7128 44 73.1181 44.288C73.5341 44.576 73.9928 44.72 74.4941 44.72C74.9208 44.72 75.2675 44.624 75.5341 44.432C75.8008 44.24 75.9341 43.9787 75.9341 43.648C75.9341 43.4347 75.8755 43.264 75.7581 43.136C75.6408 42.9973 75.4915 42.8853 75.3101 42.8C75.1395 42.7147 74.9635 42.6507 74.7821 42.608L73.4221 42.224C72.6755 42.0107 72.1155 41.6907 71.7421 41.264C71.3795 40.8267 71.1981 40.32 71.1981 39.744C71.1981 39.2213 71.3315 38.768 71.5981 38.384C71.8648 37.9893 72.2328 37.6853 72.7021 37.472C73.1715 37.2587 73.6995 37.152 74.2861 37.152C75.0755 37.152 75.7795 37.3493 76.3981 37.744C77.0168 38.128 77.4541 38.6667 77.7101 39.36L76.3181 40.016C76.1475 39.6 75.8755 39.2693 75.5021 39.024C75.1395 38.7787 74.7288 38.656 74.2701 38.656C73.8755 38.656 73.5608 38.752 73.3261 38.944C73.0915 39.1253 72.9741 39.3653 72.9741 39.664C72.9741 39.8667 73.0275 40.0373 73.1341 40.176C73.2408 40.304 73.3795 40.4107 73.5501 40.496C73.7208 40.5707 73.8968 40.6347 74.0781 40.688L75.4861 41.104C76.2008 41.3067 76.7501 41.6267 77.1341 42.064C77.5181 42.4907 77.7101 43.0027 77.7101 43.6C77.7101 44.112 77.5715 44.5653 77.2941 44.96C77.0275 45.344 76.6541 45.648 76.1741 45.872C75.6941 46.0853 75.1341 46.192 74.4941 46.192ZM79.6416 46V33.888H81.4496V42L80.7456 41.824L85.0816 37.344H87.3376L84.0736 40.816L87.4816 46H85.4016L82.3616 41.408L83.4336 41.264L80.8736 43.984L81.4496 42.784V46H79.6416ZM96.1886 46.192C95.442 46.192 94.7486 46.0533 94.1086 45.776C93.4686 45.488 92.9246 45.0987 92.4766 44.608C92.0286 44.1173 91.698 43.552 91.4846 42.912L93.0846 42.24C93.3726 42.976 93.794 43.5413 94.3486 43.936C94.9033 44.3307 95.5433 44.528 96.2686 44.528C96.6953 44.528 97.0686 44.464 97.3886 44.336C97.7086 44.1973 97.954 44.0053 98.1246 43.76C98.306 43.5147 98.3966 43.232 98.3966 42.912C98.3966 42.4747 98.274 42.128 98.0286 41.872C97.7833 41.616 97.4206 41.4133 96.9406 41.264L94.7006 40.56C93.8046 40.2827 93.122 39.8613 92.6526 39.296C92.1833 38.72 91.9486 38.048 91.9486 37.28C91.9486 36.608 92.114 36.0213 92.4446 35.52C92.7753 35.008 93.2286 34.608 93.8046 34.32C94.3913 34.032 95.058 33.888 95.8046 33.888C96.5193 33.888 97.17 34.016 97.7566 34.272C98.3433 34.5173 98.8446 34.8587 99.2606 35.296C99.6873 35.7333 99.9966 36.24 100.189 36.816L98.6206 37.504C98.386 36.8747 98.018 36.3893 97.5166 36.048C97.026 35.7067 96.4553 35.536 95.8046 35.536C95.41 35.536 95.0633 35.6053 94.7646 35.744C94.466 35.872 94.2313 36.064 94.0606 36.32C93.9006 36.5653 93.8206 36.8533 93.8206 37.184C93.8206 37.568 93.9433 37.9093 94.1886 38.208C94.434 38.5067 94.8073 38.7307 95.3086 38.88L97.3886 39.536C98.338 39.824 99.0526 40.24 99.5326 40.784C100.013 41.3173 100.253 41.984 100.253 42.784C100.253 43.4453 100.077 44.032 99.7246 44.544C99.3833 45.056 98.9086 45.4613 98.3006 45.76C97.6926 46.048 96.9886 46.192 96.1886 46.192ZM106.1 46.096C105.193 46.096 104.489 45.84 103.988 45.328C103.487 44.816 103.236 44.096 103.236 43.168V38.976H101.716V37.344H101.956C102.361 37.344 102.676 37.2267 102.9 36.992C103.124 36.7573 103.236 36.4373 103.236 36.032V35.36H105.044V37.344H107.012V38.976H105.044V43.088C105.044 43.3867 105.092 43.6427 105.188 43.856C105.284 44.0587 105.439 44.2187 105.652 44.336C105.865 44.4427 106.143 44.496 106.484 44.496C106.569 44.496 106.665 44.4907 106.772 44.48C106.879 44.4693 106.98 44.4587 107.076 44.448V46C106.927 46.0213 106.761 46.0427 106.58 46.064C106.399 46.0853 106.239 46.096 106.1 46.096ZM111.514 46.192C110.928 46.192 110.41 46.0907 109.962 45.888C109.525 45.6747 109.184 45.3867 108.938 45.024C108.693 44.6507 108.57 44.2133 108.57 43.712C108.57 43.2427 108.672 42.8213 108.874 42.448C109.088 42.0747 109.413 41.76 109.85 41.504C110.288 41.248 110.837 41.0667 111.498 40.96L114.506 40.464V41.888L111.85 42.352C111.37 42.4373 111.018 42.592 110.794 42.816C110.57 43.0293 110.458 43.3067 110.458 43.648C110.458 43.9787 110.581 44.2507 110.826 44.464C111.082 44.6667 111.408 44.768 111.802 44.768C112.293 44.768 112.72 44.6613 113.082 44.448C113.456 44.2347 113.744 43.952 113.946 43.6C114.149 43.2373 114.25 42.8373 114.25 42.4V40.176C114.25 39.7493 114.09 39.4027 113.77 39.136C113.461 38.8587 113.045 38.72 112.522 38.72C112.042 38.72 111.621 38.848 111.258 39.104C110.906 39.3493 110.645 39.6693 110.474 40.064L108.97 39.312C109.13 38.8853 109.392 38.512 109.754 38.192C110.117 37.8613 110.538 37.6053 111.018 37.424C111.509 37.2427 112.026 37.152 112.57 37.152C113.253 37.152 113.856 37.28 114.378 37.536C114.912 37.792 115.322 38.1493 115.61 38.608C115.909 39.056 116.058 39.5787 116.058 40.176V46H114.33V44.432L114.698 44.48C114.496 44.832 114.234 45.136 113.914 45.392C113.605 45.648 113.248 45.8453 112.842 45.984C112.448 46.1227 112.005 46.192 111.514 46.192ZM118.332 46V37.344H120.06V39.04L119.852 38.816C120.066 38.272 120.407 37.8613 120.876 37.584C121.346 37.296 121.89 37.152 122.508 37.152C123.148 37.152 123.714 37.2907 124.204 37.568C124.695 37.8453 125.079 38.2293 125.356 38.72C125.634 39.2107 125.772 39.776 125.772 40.416V46H123.98V40.896C123.98 40.4587 123.9 40.0907 123.74 39.792C123.58 39.4827 123.351 39.248 123.052 39.088C122.764 38.9173 122.434 38.832 122.06 38.832C121.687 38.832 121.351 38.9173 121.052 39.088C120.764 39.248 120.54 39.4827 120.38 39.792C120.22 40.1013 120.14 40.4693 120.14 40.896V46H118.332ZM127.867 46V33.888H129.675V46H127.867ZM136.013 46.192C135.149 46.192 134.381 45.9947 133.709 45.6C133.048 45.1947 132.53 44.6507 132.157 43.968C131.784 43.2747 131.597 42.5013 131.597 41.648C131.597 40.7733 131.784 40 132.157 39.328C132.541 38.656 133.053 38.128 133.693 37.744C134.333 37.3493 135.058 37.152 135.869 37.152C136.52 37.152 137.101 37.264 137.613 37.488C138.125 37.712 138.557 38.0213 138.909 38.416C139.261 38.8 139.528 39.2427 139.709 39.744C139.901 40.2453 139.997 40.7787 139.997 41.344C139.997 41.4827 139.992 41.6267 139.981 41.776C139.97 41.9253 139.949 42.064 139.917 42.192H133.021V40.752H138.893L138.029 41.408C138.136 40.8853 138.098 40.4213 137.917 40.016C137.746 39.6 137.48 39.2747 137.117 39.04C136.765 38.7947 136.349 38.672 135.869 38.672C135.389 38.672 134.962 38.7947 134.589 39.04C134.216 39.2747 133.928 39.616 133.725 40.064C133.522 40.5013 133.442 41.0347 133.485 41.664C133.432 42.2507 133.512 42.7627 133.725 43.2C133.949 43.6373 134.258 43.9787 134.653 44.224C135.058 44.4693 135.517 44.592 136.029 44.592C136.552 44.592 136.994 44.4747 137.357 44.24C137.73 44.0053 138.024 43.7013 138.237 43.328L139.709 44.048C139.538 44.4533 139.272 44.8213 138.909 45.152C138.557 45.472 138.13 45.728 137.629 45.92C137.138 46.1013 136.6 46.192 136.013 46.192ZM142.69 49.536C142.476 49.536 142.263 49.5147 142.05 49.472C141.847 49.44 141.66 49.3867 141.49 49.312V47.76C141.618 47.792 141.772 47.8187 141.954 47.84C142.135 47.872 142.311 47.888 142.482 47.888C142.983 47.888 143.351 47.776 143.586 47.552C143.831 47.3387 144.05 47.0027 144.242 46.544L144.818 45.232L144.786 46.752L141.042 37.344H142.978L145.746 44.56H145.09L147.842 37.344H149.794L145.97 46.944C145.767 47.456 145.511 47.904 145.202 48.288C144.903 48.6827 144.546 48.9867 144.13 49.2C143.724 49.424 143.244 49.536 142.69 49.536Z" fill="white"/>
<circle cx="38" cy="104" r="13" fill="#6355FF"/>
<path d="M33.9777 107.793L37.1217 98.853H38.8737L42.0177 107.793H40.5057L39.8217 105.789H36.1857L35.4897 107.793H33.9777ZM36.5937 104.529H39.3897L37.8057 99.849H38.2017L36.5937 104.529Z" fill="white"/>
<path d="M61.176 110L65.368 98.08H67.704L71.896 110H69.88L68.968 107.328H64.12L63.192 110H61.176ZM64.664 105.648H68.392L66.28 99.408H66.808L64.664 105.648ZM73.2941 110V97.888H75.1021V110H73.2941ZM81.44 110.192C80.576 110.192 79.808 109.995 79.136 109.6C78.4747 109.195 77.9573 108.651 77.584 107.968C77.2107 107.275 77.024 106.501 77.024 105.648C77.024 104.773 77.2107 104 77.584 103.328C77.968 102.656 78.48 102.128 79.12 101.744C79.76 101.349 80.4853 101.152 81.296 101.152C81.9467 101.152 82.528 101.264 83.04 101.488C83.552 101.712 83.984 102.021 84.336 102.416C84.688 102.8 84.9547 103.243 85.136 103.744C85.328 104.245 85.424 104.779 85.424 105.344C85.424 105.483 85.4187 105.627 85.408 105.776C85.3973 105.925 85.376 106.064 85.344 106.192H78.448V104.752H84.32L83.456 105.408C83.5627 104.885 83.5253 104.421 83.344 104.016C83.1733 103.6 82.9067 103.275 82.544 103.04C82.192 102.795 81.776 102.672 81.296 102.672C80.816 102.672 80.3893 102.795 80.016 103.04C79.6427 103.275 79.3547 103.616 79.152 104.064C78.9493 104.501 78.8693 105.035 78.912 105.664C78.8587 106.251 78.9387 106.763 79.152 107.2C79.376 107.637 79.6853 107.979 80.08 108.224C80.4853 108.469 80.944 108.592 81.456 108.592C81.9787 108.592 82.4213 108.475 82.784 108.24C83.1573 108.005 83.4507 107.701 83.664 107.328L85.136 108.048C84.9653 108.453 84.6987 108.821 84.336 109.152C83.984 109.472 83.5573 109.728 83.056 109.92C82.5653 110.101 82.0267 110.192 81.44 110.192ZM86.3282 110L89.3522 105.664L86.3282 101.344H88.4562L90.9362 104.96H89.9122L92.3923 101.344H94.5203L91.4802 105.664L94.5042 110H92.3762L89.9282 106.368H90.9202L88.4562 110H86.3282ZM98.3505 110.192C97.7638 110.192 97.2465 110.091 96.7985 109.888C96.3612 109.675 96.0198 109.387 95.7745 109.024C95.5292 108.651 95.4065 108.213 95.4065 107.712C95.4065 107.243 95.5078 106.821 95.7105 106.448C95.9238 106.075 96.2492 105.76 96.6865 105.504C97.1238 105.248 97.6732 105.067 98.3345 104.96L101.342 104.464V105.888L98.6865 106.352C98.2065 106.437 97.8545 106.592 97.6305 106.816C97.4065 107.029 97.2945 107.307 97.2945 107.648C97.2945 107.979 97.4172 108.251 97.6625 108.464C97.9185 108.667 98.2438 108.768 98.6385 108.768C99.1292 108.768 99.5558 108.661 99.9185 108.448C100.292 108.235 100.58 107.952 100.782 107.6C100.985 107.237 101.086 106.837 101.086 106.4V104.176C101.086 103.749 100.926 103.403 100.606 103.136C100.297 102.859 99.8812 102.72 99.3585 102.72C98.8785 102.72 98.4572 102.848 98.0945 103.104C97.7425 103.349 97.4812 103.669 97.3105 104.064L95.8065 103.312C95.9665 102.885 96.2278 102.512 96.5905 102.192C96.9532 101.861 97.3745 101.605 97.8545 101.424C98.3452 101.243 98.8625 101.152 99.4065 101.152C100.089 101.152 100.692 101.28 101.214 101.536C101.748 101.792 102.158 102.149 102.446 102.608C102.745 103.056 102.894 103.579 102.894 104.176V110H101.166V108.432L101.534 108.48C101.332 108.832 101.07 109.136 100.75 109.392C100.441 109.648 100.084 109.845 99.6785 109.984C99.2838 110.123 98.8412 110.192 98.3505 110.192ZM105.168 110V101.344H106.896V103.04L106.688 102.816C106.902 102.272 107.243 101.861 107.712 101.584C108.182 101.296 108.726 101.152 109.344 101.152C109.984 101.152 110.55 101.291 111.04 101.568C111.531 101.845 111.915 102.229 112.192 102.72C112.47 103.211 112.608 103.776 112.608 104.416V110H110.816V104.896C110.816 104.459 110.736 104.091 110.576 103.792C110.416 103.483 110.187 103.248 109.888 103.088C109.6 102.917 109.27 102.832 108.896 102.832C108.523 102.832 108.187 102.917 107.888 103.088C107.6 103.248 107.376 103.483 107.216 103.792C107.056 104.101 106.976 104.469 106.976 104.896V110H105.168ZM118.703 110.192C117.871 110.192 117.125 109.995 116.463 109.6C115.813 109.195 115.295 108.651 114.911 107.968C114.538 107.285 114.351 106.517 114.351 105.664C114.351 104.811 114.543 104.043 114.927 103.36C115.311 102.677 115.829 102.139 116.479 101.744C117.13 101.349 117.866 101.152 118.687 101.152C119.381 101.152 119.994 101.291 120.527 101.568C121.061 101.845 121.482 102.229 121.791 102.72L121.519 103.136V97.888H123.311V110H121.599V108.24L121.807 108.576C121.509 109.099 121.082 109.499 120.527 109.776C119.973 110.053 119.365 110.192 118.703 110.192ZM118.879 108.512C119.381 108.512 119.829 108.389 120.223 108.144C120.629 107.899 120.943 107.563 121.167 107.136C121.402 106.699 121.519 106.208 121.519 105.664C121.519 105.12 121.402 104.635 121.167 104.208C120.943 103.781 120.629 103.445 120.223 103.2C119.829 102.955 119.381 102.832 118.879 102.832C118.378 102.832 117.925 102.955 117.519 103.2C117.114 103.445 116.799 103.781 116.575 104.208C116.351 104.635 116.239 105.12 116.239 105.664C116.239 106.208 116.351 106.699 116.575 107.136C116.799 107.563 117.109 107.899 117.503 108.144C117.909 108.389 118.367 108.512 118.879 108.512ZM125.582 110V101.344H127.31V103.088L127.15 102.832C127.342 102.267 127.652 101.861 128.078 101.616C128.505 101.36 129.017 101.232 129.614 101.232H130.142V102.88H129.39C128.793 102.88 128.308 103.067 127.934 103.44C127.572 103.803 127.39 104.325 127.39 105.008V110H125.582ZM134.131 110.192C133.544 110.192 133.027 110.091 132.579 109.888C132.142 109.675 131.8 109.387 131.555 109.024C131.31 108.651 131.187 108.213 131.187 107.712C131.187 107.243 131.288 106.821 131.491 106.448C131.704 106.075 132.03 105.76 132.467 105.504C132.904 105.248 133.454 105.067 134.115 104.96L137.123 104.464V105.888L134.467 106.352C133.987 106.437 133.635 106.592 133.411 106.816C133.187 107.029 133.075 107.307 133.075 107.648C133.075 107.979 133.198 108.251 133.443 108.464C133.699 108.667 134.024 108.768 134.419 108.768C134.91 108.768 135.336 108.661 135.699 108.448C136.072 108.235 136.36 107.952 136.563 107.6C136.766 107.237 136.867 106.837 136.867 106.4V104.176C136.867 103.749 136.707 103.403 136.387 103.136C136.078 102.859 135.662 102.72 135.139 102.72C134.659 102.72 134.238 102.848 133.875 103.104C133.523 103.349 133.262 103.669 133.091 104.064L131.587 103.312C131.747 102.885 132.008 102.512 132.371 102.192C132.734 101.861 133.155 101.605 133.635 101.424C134.126 101.243 134.643 101.152 135.187 101.152C135.87 101.152 136.472 101.28 136.995 101.536C137.528 101.792 137.939 102.149 138.227 102.608C138.526 103.056 138.675 103.579 138.675 104.176V110H136.947V108.432L137.315 108.48C137.112 108.832 136.851 109.136 136.531 109.392C136.222 109.648 135.864 109.845 135.459 109.984C135.064 110.123 134.622 110.192 134.131 110.192ZM148.258 110.192C147.511 110.192 146.818 110.053 146.178 109.776C145.538 109.488 144.994 109.099 144.546 108.608C144.098 108.117 143.767 107.552 143.554 106.912L145.154 106.24C145.442 106.976 145.863 107.541 146.418 107.936C146.973 108.331 147.613 108.528 148.338 108.528C148.765 108.528 149.138 108.464 149.458 108.336C149.778 108.197 150.023 108.005 150.194 107.76C150.375 107.515 150.466 107.232 150.466 106.912C150.466 106.475 150.343 106.128 150.098 105.872C149.853 105.616 149.49 105.413 149.01 105.264L146.77 104.56C145.874 104.283 145.191 103.861 144.722 103.296C144.253 102.72 144.018 102.048 144.018 101.28C144.018 100.608 144.183 100.021 144.514 99.52C144.845 99.008 145.298 98.608 145.874 98.32C146.461 98.032 147.127 97.888 147.874 97.888C148.589 97.888 149.239 98.016 149.826 98.272C150.413 98.5173 150.914 98.8587 151.33 99.296C151.757 99.7333 152.066 100.24 152.258 100.816L150.69 101.504C150.455 100.875 150.087 100.389 149.586 100.048C149.095 99.7067 148.525 99.536 147.874 99.536C147.479 99.536 147.133 99.6053 146.834 99.744C146.535 99.872 146.301 100.064 146.13 100.32C145.97 100.565 145.89 100.853 145.89 101.184C145.89 101.568 146.013 101.909 146.258 102.208C146.503 102.507 146.877 102.731 147.378 102.88L149.458 103.536C150.407 103.824 151.122 104.24 151.602 104.784C152.082 105.317 152.322 105.984 152.322 106.784C152.322 107.445 152.146 108.032 151.794 108.544C151.453 109.056 150.978 109.461 150.37 109.76C149.762 110.048 149.058 110.192 148.258 110.192ZM154.425 110V101.344H156.233V110H154.425ZM154.425 100.16V98.08H156.233V100.16H154.425ZM158.507 110V97.888H160.315V110H158.507ZM165.101 110L161.709 101.344H163.677L166.285 108.4H165.565L168.173 101.344H170.157L166.749 110H165.101ZM173.825 110.192C173.239 110.192 172.721 110.091 172.273 109.888C171.836 109.675 171.495 109.387 171.249 109.024C171.004 108.651 170.881 108.213 170.881 107.712C170.881 107.243 170.983 106.821 171.185 106.448C171.399 106.075 171.724 105.76 172.161 105.504C172.599 105.248 173.148 105.067 173.809 104.96L176.817 104.464V105.888L174.161 106.352C173.681 106.437 173.329 106.592 173.105 106.816C172.881 107.029 172.769 107.307 172.769 107.648C172.769 107.979 172.892 108.251 173.137 108.464C173.393 108.667 173.719 108.768 174.113 108.768C174.604 108.768 175.031 108.661 175.393 108.448C175.767 108.235 176.055 107.952 176.257 107.6C176.46 107.237 176.561 106.837 176.561 106.4V104.176C176.561 103.749 176.401 103.403 176.081 103.136C175.772 102.859 175.356 102.72 174.833 102.72C174.353 102.72 173.932 102.848 173.569 103.104C173.217 103.349 172.956 103.669 172.785 104.064L171.281 103.312C171.441 102.885 171.703 102.512 172.065 102.192C172.428 101.861 172.849 101.605 173.329 101.424C173.82 101.243 174.337 101.152 174.881 101.152C175.564 101.152 176.167 101.28 176.689 101.536C177.223 101.792 177.633 102.149 177.921 102.608C178.22 103.056 178.369 103.579 178.369 104.176V110H176.641V108.432L177.009 108.48C176.807 108.832 176.545 109.136 176.225 109.392C175.916 109.648 175.559 109.845 175.153 109.984C174.759 110.123 174.316 110.192 173.825 110.192Z" fill="#001D6D"/>
</svg>
