<svg width="20" height="20" viewBox="0 0 20 20" fill="none" xmlns="http://www.w3.org/2000/svg">
<path fill-rule="evenodd" clip-rule="evenodd" d="M15.9892 3.26186C16.1627 3.40052 16.2495 3.6208 16.2174 3.84051L14.2661 17.1738C14.2287 17.4298 14.0374 17.6363 13.7849 17.6931C13.5325 17.7499 13.2712 17.6453 13.1277 17.43L9.33608 11.7426L2.69352 9.21211C2.45151 9.11992 2.29143 8.88803 2.29102 8.62905C2.2906 8.37008 2.44994 8.13768 2.69165 8.04472L15.3746 3.16667C15.5818 3.08695 15.8158 3.12319 15.9892 3.26186ZM4.66433 8.62526L9.96778 10.6456C10.0892 10.6919 10.1932 10.7749 10.2653 10.883L13.265 15.3825L14.8258 4.71701L4.66433 8.62526Z" fill="#6355FF"/>
<path fill-rule="evenodd" clip-rule="evenodd" d="M12.4888 7.85946C12.7509 8.0841 12.7812 8.47866 12.5566 8.74074L10.0566 11.6574C9.83194 11.9195 9.43738 11.9498 9.1753 11.7252C8.91322 11.5006 8.88287 11.106 9.10751 10.8439L11.6075 7.92725C11.8321 7.66517 12.2267 7.63482 12.4888 7.85946Z" fill="#6355FF"/>
</svg>
