<svg width="140" height="140" viewBox="0 0 140 140" fill="none" xmlns="http://www.w3.org/2000/svg">
<circle cx="70" cy="70" r="70" fill="#DFE2FF"/>
<circle cx="69.9065" cy="71.2854" r="33.5393" fill="#6355FF"/>
<ellipse cx="27.9785" cy="68.4923" rx="4.65824" ry="10.2481" fill="#6355FF"/>
<ellipse cx="109.975" cy="81.7603" rx="4.65824" ry="10.2481" transform="rotate(14.9842 109.975 81.7603)" fill="#6355FF"/>
<path d="M31.2753 23.5507C29.8198 21.7825 29.1653 19.5409 29.4325 17.2407C29.7101 14.8434 30.9573 12.7567 32.7409 11.3306L31.6858 9.65802C31.1368 8.78764 31.4194 7.62319 32.3171 7.05691C33.2148 6.49063 34.3874 6.73712 34.9365 7.6075L36.1993 9.60938C37.1381 9.3726 38.1278 9.2846 39.1376 9.37121L43.2545 9.72399C44.3002 9.81364 45.0495 10.7241 44.9295 11.7589C44.8094 12.7936 43.8648 13.5591 42.8202 13.4696L38.7033 13.1169C35.9901 12.8848 33.5292 14.8798 33.2173 17.5644C33.0661 18.8653 33.4365 20.1317 34.2594 21.1312C35.0822 22.1307 36.2589 22.7436 37.5732 22.8559L43.4402 23.359C44.4858 23.4487 45.2356 24.3597 45.1161 25.3941C45.0465 25.9943 44.6994 26.503 44.2163 26.8078C43.8667 27.0283 43.4455 27.1419 43.0065 27.1043L37.1394 26.6012C34.8128 26.4022 32.7309 25.3189 31.2753 23.5507Z" fill="#6355FF"/>
<path d="M47.1006 17.2123L41.3456 16.6388C40.3201 16.5365 39.4044 17.2838 39.3006 18.3082C39.1961 19.333 39.9423 20.2462 40.9678 20.3485L46.7222 20.9223C48.0112 21.0505 49.1724 21.6731 49.9913 22.6749C50.8102 23.6767 51.1886 24.938 51.0577 26.226C50.9001 27.7693 50.032 29.0725 48.8099 29.8426C47.9262 30.4001 46.8571 30.679 45.7402 30.568L41.7023 30.1656C40.6768 30.0633 39.7612 30.8106 39.6567 31.8354C39.5523 32.8601 40.299 33.773 41.3246 33.8753L45.3618 34.278C46.3517 34.3772 47.3208 34.3022 48.2375 34.0793L49.5005 36.0816C50.0495 36.9519 51.2015 37.2113 52.0738 36.6611C52.946 36.1108 53.208 34.9595 52.659 34.0892L51.604 32.4167C53.3342 31.0251 54.5289 28.9716 54.7709 26.597C55.2503 21.8924 51.8101 17.6825 47.1019 17.2131L47.1006 17.2123Z" fill="#6355FF"/>
<ellipse cx="62.4493" cy="65.377" rx="4.96878" ry="10.2481" fill="white"/>
<ellipse cx="82.3321" cy="65.377" rx="4.96878" ry="10.2481" fill="white"/>
<path fill-rule="evenodd" clip-rule="evenodd" d="M58.8965 84.332C58.8963 84.3328 58.896 84.3335 58.8958 84.3343C57.784 87.94 60.603 92.0102 65.1921 93.4252C69.7812 94.8401 74.4027 93.0642 75.5145 89.4584C75.5147 89.4577 75.515 89.4569 75.5152 89.4562L58.8965 84.332Z" fill="white"/>
</svg>
