<svg width="18" height="18" viewBox="0 0 18 18" fill="none" xmlns="http://www.w3.org/2000/svg">
<path fill-rule="evenodd" clip-rule="evenodd" d="M7.53302 2.64961C7.88183 1.87387 8.86506 1.6297 9.53626 2.15215L10.3687 2.80009C10.6882 3.04877 10.875 3.43096 10.875 3.83581V6.55532H14.4404C15.7608 6.55532 16.7412 7.77888 16.4532 9.06756L15.2485 14.4595C15.0379 15.402 14.2015 16.0722 13.2357 16.0722H5.8125C5.50184 16.0722 5.25 15.8204 5.25 15.5097V8.00842C5.25 7.82285 5.28935 7.6394 5.36545 7.47016L7.53302 2.64961ZM8.84524 3.03991C8.74936 2.96528 8.6089 3.00016 8.55906 3.11098L6.39149 7.93152C6.38062 7.9557 6.375 7.98191 6.375 8.00842V14.9472H13.2357C13.6747 14.9472 14.0549 14.6426 14.1506 14.2141L15.3553 8.82225C15.4862 8.23649 15.0406 7.68032 14.4404 7.68032H10.3125C10.0018 7.68032 9.75 7.42848 9.75 7.11782V3.83581C9.75 3.77798 9.72331 3.72338 9.67767 3.68785L8.84524 3.03991Z" fill="#6355FF"/>
<path fill-rule="evenodd" clip-rule="evenodd" d="M2.25 8.59766C2.25 7.87278 2.83763 7.28516 3.5625 7.28516H6.375V16.0723H3.5625C2.83763 16.0723 2.25 15.4847 2.25 14.7598V8.59766ZM3.5625 8.41016C3.45895 8.41016 3.375 8.4941 3.375 8.59766V14.7598C3.375 14.8634 3.45895 14.9473 3.5625 14.9473H5.25V8.41016H3.5625Z" fill="#6355FF"/>
</svg>
